<svg xmlns="http://www.w3.org/2000/svg" viewBox="0 0 32.85 39.87"><defs><style>.cls-1{fill:#ed2f42;}.cls-2{fill:#d21011;}.cls-3{fill:#9e0e0e;}.cls-4{fill:#e21e28;}.cls-5{fill:#b2652b;}</style></defs><title>apple</title><g id="Слой_2" data-name="Слой 2"><g id="BACKGROUND_1" data-name="BACKGROUND 1"><path class="cls-1" d="M8.11,19.58A2.57,2.57,0,1,1,5.57,17,2.56,2.56,0,0,1,8.11,19.58Z"/><path class="cls-2" d="M32.85,20.86A10.33,10.33,0,0,0,22.59,10.45a10.2,10.2,0,0,0-6.1,1.94A10.34,10.34,0,0,0,1.78,26.5h0s4,10.66,9.14,12.85c0,0,3.06,1,5.14.12,2.06.92,5.14,0,5.14,0,4.09-1.68,7.55-8.7,8.81-11.53A10.28,10.28,0,0,0,32.85,20.86Z"/><path class="cls-3" d="M22.59,10.45a10.2,10.2,0,0,0-6.1,1.94l-.08-.06-.2,27.2c2.06.82,5-.11,5-.11,4.09-1.68,7.55-8.7,8.81-11.53a10.33,10.33,0,0,0-7.42-17.44Z"/><path class="cls-4" d="M10.52,19.88a2.73,2.73,0,1,1-2.71-2.75A2.73,2.73,0,0,1,10.52,19.88Z"/><path class="cls-5" d="M16.2,13a.63.63,0,0,1-.34-.55C15.66,5,18.21.51,18.32.32A.64.64,0,0,1,19.2.09a.64.64,0,0,1,.24.88,23.49,23.49,0,0,0-2.29,11.4.63.63,0,0,1-.63.66A.56.56,0,0,1,16.2,13Z"/></g></g></svg>