<svg xmlns="http://www.w3.org/2000/svg" viewBox="0 0 68.28 101.95"><defs><style>.cls-1{fill:#a6c752;}.cls-2{fill:#418820;}.cls-3{fill:#f4f27b;}.cls-4{fill:#e1c95b;}.cls-5{fill:#6e390f;}.cls-6{fill:#b2652b;}</style></defs><title>avocado</title><g id="Слой_2" data-name="Слой 2"><g id="BACKGROUND_1" data-name="BACKGROUND 1"><path class="cls-1" d="M67.57,50.6C72.28,84.12,52.47,102,34,102c-11.72,0-21.92-8.6-27.66-18.23C-7.06,61.25,2.91,33.32,16.59,13.54,21.2,6.87,27.46,0,36.22,0,45.42,0,51,10.55,54.88,17.47,60.71,27.93,65.89,38.6,67.57,50.6Z"/><path class="cls-2" d="M67.57,50.6c-1.68-12-6.86-22.67-12.69-33.13C51,10.55,45.42,0,36.22,0c-.31,0-.63,0-.93,0L35,101.93C53.21,101.3,72.19,83.49,67.57,50.6Z"/><path class="cls-3" d="M62.63,50.65C66.64,79.22,49.76,94.44,34,94.4c-10,0-18.67-7.32-23.56-15.52C-1,59.73,7.53,35.93,19.19,19.08,23.12,13.4,28.45,7.54,35.92,7.55c7.84,0,12.61,9,15.9,14.88C56.78,31.34,61.19,40.43,62.63,50.65Z"/><path class="cls-4" d="M62.63,50.65c-1.44-10.22-5.85-19.31-10.81-28.22-3.29-5.9-8.07-14.87-15.9-14.88h-.65l-.21,86.82C50.5,93.75,66.55,78.58,62.63,50.65Z"/><circle class="cls-4" cx="34.12" cy="66.49" r="17.57"/><circle class="cls-5" cx="34.12" cy="66.49" r="13.69" transform="translate(-26.42 22.67) rotate(-26.94)"/><path class="cls-6" d="M35,63.72a3.14,3.14,0,1,1-1.87-4A3.14,3.14,0,0,1,35,63.72Z"/></g></g></svg>