<svg xmlns="http://www.w3.org/2000/svg" viewBox="0 0 102.6 84.64"><defs><style>.cls-1{fill:#f4cf16;}.cls-2{fill:#ffdc48;}.cls-3{fill:#c9b149;}</style></defs><title>banana</title><g id="Слой_2" data-name="Слой 2"><g id="BACKGROUND_1" data-name="BACKGROUND 1"><path class="cls-1" d="M1.15,48.86C-.76,42.42-.56,36.05,3.84,31.17c1.9-2.1,3.88-3,3.84-6.38,0-3.86-3.55-8.42-2.61-12.16,1.8,0,3.48,1.14,5.28,1.44C10.18,19,7.51,24.54,11.59,28.88c2.11,2.25,5.21,2.82,7.27,5.17,2.21,2.53,3,6.14,3.84,9.39A45,45,0,0,0,30,59.54C38.17,70.25,50.2,70.2,62,69.63c1.54-.15,4.92.39,5.91,3.23a6.3,6.3,0,0,1-3.3,7.9c-16,6.53-34,5.24-47.33-7.1C11.93,68.68,4.07,58.69,1.15,48.86Z"/><path class="cls-2" d="M64.51,76.81A80.15,80.15,0,0,0,54,79.39c-8.19,2.26-17.07-.29-23.74-5.78-5.39-4.43-8.87-10.83-11.84-17.28-2.88-6.26-5.4-12.79-9.18-18.5a32.61,32.61,0,0,0-5.57-6.46c.05-.07.11-.13.17-.2,1.9-2.1,3.88-3,3.84-6.38,0-3.86-3.55-8.42-2.61-12.16,1.8,0,3.48,1.14,5.28,1.44C10.18,19,7.51,24.54,11.59,28.88c2.11,2.25,5.21,2.82,7.27,5.17,2.21,2.53,3,6.14,3.84,9.39A45,45,0,0,0,30,59.54C38.17,70.25,50.2,70.2,62,69.63c1.54-.15,4.92.39,5.91,3.23a6.61,6.61,0,0,1,.14,3.83A13.85,13.85,0,0,0,64.51,76.81Z"/><path class="cls-3" d="M14,50.41l4.6,8.85a1.54,1.54,0,0,0,2.18.66h0a1.83,1.83,0,0,0,.61-2.36l-4.6-8.86A1.54,1.54,0,0,0,14.65,48h0A1.83,1.83,0,0,0,14,50.41Z"/><path class="cls-3" d="M49.85,78.74l9.36-.47a1.68,1.68,0,0,0,1.52-1.81h0a1.66,1.66,0,0,0-1.67-1.66l-9.36.47a1.7,1.7,0,0,0-1.52,1.82h0A1.65,1.65,0,0,0,49.85,78.74Z"/><path class="cls-3" d="M35,75.81l5.33,1.73a1.26,1.26,0,0,0,1.58-.92h0A1.42,1.42,0,0,0,41,74.91l-5.32-1.73a1.26,1.26,0,0,0-1.58.92h0A1.39,1.39,0,0,0,35,75.81Z"/><path class="cls-3" d="M9,39.35l2.21,5.54a1.23,1.23,0,0,0,1.66.72h0a1.42,1.42,0,0,0,.66-1.81l-2.2-5.54a1.23,1.23,0,0,0-1.66-.72h0A1.44,1.44,0,0,0,9,39.35Z"/><path class="cls-1" d="M18.27,47.87c-4-5.17-6-11.16-3.68-17.47,1-2.73,2.53-4.41,1.33-7.49-1.38-3.55-6.23-6.33-6.66-10.18,1.66-.77,3.62-.38,5.39-.84,1.57,4.64,1,10.86,6.32,13.21,2.73,1.21,5.81.47,8.53,1.8,2.93,1.43,4.9,4.45,6.82,7.11A41.49,41.49,0,0,0,48.7,45.91c11.3,6.56,22.42,1.57,33.15-3.8,1.38-.77,4.7-1.66,6.6.56a6.51,6.51,0,0,1-.3,8.67C75.65,63.94,58.47,70.17,41.87,64.2,35.16,61.79,24.4,55.78,18.27,47.87Z"/><path class="cls-2" d="M86.67,47.73a84.84,84.84,0,0,0-8.83,6.71,26.63,26.63,0,0,1-24,4.4c-6.53-1.89-12-6.39-17-11.14S27.4,38.07,21.91,34.34a29.66,29.66,0,0,0-7.41-3.69l.09-.25c1-2.73,2.53-4.41,1.33-7.49-1.38-3.55-6.23-6.33-6.66-10.18,1.66-.77,3.62-.38,5.39-.84,1.57,4.64,1,10.86,6.32,13.21,2.73,1.21,5.81.47,8.53,1.8,2.93,1.43,4.9,4.45,6.82,7.11A41.49,41.49,0,0,0,48.7,45.91c11.3,6.56,22.42,1.57,33.15-3.8,1.38-.77,4.7-1.66,6.6.56a6.32,6.32,0,0,1,1.47,3.49A14.42,14.42,0,0,0,86.67,47.73Z"/><path class="cls-3" d="M30.74,44l7.35,6.31A1.51,1.51,0,0,0,40.33,50h0a1.84,1.84,0,0,0-.26-2.44l-7.34-6.31a1.53,1.53,0,0,0-2.25.28h0A1.84,1.84,0,0,0,30.74,44Z"/><path class="cls-3" d="M73.77,55.54l8.5-4.28a1.8,1.8,0,0,0,.78-2.3h0a1.56,1.56,0,0,0-2.13-.85l-8.5,4.28a1.81,1.81,0,0,0-.78,2.31h0A1.56,1.56,0,0,0,73.77,55.54Z"/><path class="cls-3" d="M59,58.93l5.54-.59a1.36,1.36,0,0,0,1.14-1.5h0a1.3,1.3,0,0,0-1.39-1.23l-5.53.58a1.36,1.36,0,0,0-1.14,1.51h0A1.3,1.3,0,0,0,59,58.93Z"/><path class="cls-3" d="M22.24,35.83l4,4.23A1.2,1.2,0,0,0,28,40h0a1.46,1.46,0,0,0,0-1.94l-4-4.23a1.21,1.21,0,0,0-1.8,0h0A1.46,1.46,0,0,0,22.24,35.83Z"/><path class="cls-1" d="M38.31,39c-5.72-2.68-10-7-10.49-13.84-.21-2.94.44-5.17-1.9-7.34-2.7-2.51-8.18-2.64-10.16-5.87,1.17-1.5,3.09-2.1,4.48-3.37,3.31,3.39,5.39,9.22,11.09,8.74,3-.24,5.39-2.4,8.37-2.53,3.22-.14,6.22,1.6,9,3a37.81,37.81,0,0,0,16,4.63C77.53,22.85,85.42,13,92.8,3,93.71,1.61,96.31-.8,98.93.26a6.31,6.31,0,0,1,3.31,7.9c-6,17.34-18.78,31.25-36.09,34C59.16,43.24,47.06,43.08,38.31,39Z"/><path class="cls-2" d="M99.42,5.65A94.77,94.77,0,0,0,94.3,15.94,28.72,28.72,0,0,1,74.65,31.52C68,33,61.3,31.63,54.87,29.81,48.63,28,42.44,25.79,36,25.12a28.81,28.81,0,0,0-8.15.3,2.45,2.45,0,0,1,0-.27c-.21-2.94.44-5.17-1.9-7.34-2.7-2.51-8.18-2.64-10.16-5.87,1.17-1.5,3.09-2.1,4.48-3.37,3.31,3.39,5.39,9.22,11.09,8.74,3-.24,5.39-2.4,8.37-2.53,3.22-.14,6.22,1.6,9,3a37.81,37.81,0,0,0,16,4.63C77.53,22.85,85.42,13,92.8,3,93.71,1.61,96.31-.8,98.93.26a5.73,5.73,0,0,1,2.75,2.41A15.94,15.94,0,0,0,99.42,5.65Z"/><path class="cls-3" d="M47.87,29.48l9.18,2.08a1.61,1.61,0,0,0,1.89-1.35h0a1.75,1.75,0,0,0-1.24-2.05l-9.17-2.07a1.62,1.62,0,0,0-1.9,1.34h0A1.74,1.74,0,0,0,47.87,29.48Z"/><path class="cls-3" d="M91.11,18.9,97,11a1.85,1.85,0,0,0-.26-2.44h0a1.52,1.52,0,0,0-2.25.27l-5.83,8a1.84,1.84,0,0,0,.25,2.44h0A1.52,1.52,0,0,0,91.11,18.9Z"/><path class="cls-3" d="M79.29,29.11,84,25.89A1.44,1.44,0,0,0,84.4,24h0a1.21,1.21,0,0,0-1.75-.43l-4.71,3.21a1.44,1.44,0,0,0-.39,1.89h0A1.21,1.21,0,0,0,79.29,29.11Z"/><path class="cls-3" d="M36.9,26.3l5.3,1.85a1.25,1.25,0,0,0,1.59-.89h0A1.41,1.41,0,0,0,43,25.53l-5.29-1.85a1.27,1.27,0,0,0-1.6.89h0A1.41,1.41,0,0,0,36.9,26.3Z"/></g></g></svg>