<svg xmlns="http://www.w3.org/2000/svg" viewBox="0 0 52.94 62"><defs><style>.cls-1{fill:#7fa206;}.cls-2{fill:#a6c752;}.cls-3{fill:#275114;}.cls-4{fill:#1f3f0f;}</style></defs><title>broccoli</title><g id="Слой_2" data-name="Слой 2"><g id="BACKGROUND_1" data-name="BACKGROUND 1"><path class="cls-1" d="M28.5,49.66a1.38,1.38,0,0,1-1.07-2.39L38.81,37.08a1.37,1.37,0,0,1,1.83,2.05L29.26,49.32A1.35,1.35,0,0,1,28.5,49.66Z"/><path class="cls-1" d="M24.28,47.86a1.37,1.37,0,0,1-1.05-.33L11.73,37.47a1.37,1.37,0,1,1,1.8-2.06L25,45.46a1.38,1.38,0,0,1,.13,1.94A1.36,1.36,0,0,1,24.28,47.86Z"/><path class="cls-2" d="M26.67,62h0a3.28,3.28,0,0,0,3.25-3.29l-.16-27.2a3.28,3.28,0,0,0-3.29-3.25h0a3.28,3.28,0,0,0-3.25,3.29l.16,27.2A3.28,3.28,0,0,0,26.67,62Z"/><path class="cls-3" d="M9.72,15.15a7.17,7.17,0,0,1,9-5.37A14.12,14.12,0,0,1,46.3,14c0,.15,0,.3,0,.45a3.72,3.72,0,0,1,2.44,5,11.36,11.36,0,1,1-15,17A9.93,9.93,0,0,1,20,33.78,11.36,11.36,0,1,1,9.72,15.15Z"/><path class="cls-4" d="M9.72,15.15a7.17,7.17,0,0,1,9-5.37,14.15,14.15,0,0,1,7.72-8.57l.22,36.84A10,10,0,0,1,20,33.78,11.36,11.36,0,1,1,9.72,15.15Z"/></g></g></svg>