<svg xmlns="http://www.w3.org/2000/svg" viewBox="0 0 62.63 115.44"><defs><style>.cls-1{fill:#f6a415;}.cls-2{fill:#f28d16;}.cls-3{fill:#e26d1e;}.cls-4{fill:#7fa206;}</style></defs><title>carrot</title><g id="Слой_2" data-name="Слой 2"><g id="BACKGROUND_1" data-name="BACKGROUND 1"><path class="cls-1" d="M49.15,69.53c-.36,4.63-1,9.22-1.68,13.81-.91,6.16-2.15,12.88-4.64,18.91A40.8,40.8,0,0,1,41,106.08a31.81,31.81,0,0,1-3.15,4.75c-1.07,1.31-4.08,4.89-6.2,4.6a8,8,0,0,1-3.5-1.84c-5.38-4.24-8.08-11.57-9.89-17.92-.1-.34-.19-.68-.29-1-.34-1.22-.68-2.51-1-3.83a136.32,136.32,0,0,1-3.09-16.12c-.08-.62-.14-1.24-.2-1.84s-.12-1.33-.19-2a63.21,63.21,0,0,1-.36-8,28.73,28.73,0,0,1,.39-3.83,20.09,20.09,0,0,1,3.16-7.88A17.9,17.9,0,0,1,49,57.36a22.94,22.94,0,0,1,.48,3.81A66.19,66.19,0,0,1,49.15,69.53Z"/><path class="cls-2" d="M49.15,69.53c-.36,4.63-1,9.22-1.68,13.81-.54,3.63-1.19,7.46-2.14,11.22-.25,1-.52,2-.82,2.93a39.05,39.05,0,0,1-6.65,13.34c-1.07,1.31-4.08,4.89-6.2,4.6l-.28-.05-.2-72h.28A17.91,17.91,0,0,1,49,57.36a22.94,22.94,0,0,1,.48,3.81A66.19,66.19,0,0,1,49.15,69.53Z"/><path class="cls-2" d="M27.47,60.94a1.91,1.91,0,0,1-1.91,1.92l-12.43,0a28.73,28.73,0,0,1,.39-3.83l12,0A1.92,1.92,0,0,1,27.47,60.94Z"/><path class="cls-2" d="M31.43,50.85l-9.12,0a1.92,1.92,0,1,0,0,3.83l9.12,0Z"/><path class="cls-2" d="M23.07,72.75a1.87,1.87,0,0,1-.56,1.36,1.91,1.91,0,0,1-1.35.56l-7.28,0c-.08-.62-.14-1.24-.2-1.84s-.12-1.33-.19-2l7.66,0A1.92,1.92,0,0,1,23.07,72.75Z"/><path class="cls-2" d="M31.51,79.27l-9.12,0a1.92,1.92,0,0,0,0,3.83l9.12,0Z"/><path class="cls-2" d="M26.45,92.7a1.91,1.91,0,0,1-1.91,1.92l-6.56,0c-.34-1.22-.68-2.51-1-3.83l7.56,0A1.92,1.92,0,0,1,26.45,92.7Z"/><path class="cls-2" d="M31.58,102.28H27.47a1.92,1.92,0,1,0,0,3.83h4.11Z"/><path class="cls-3" d="M46.23,58.14l-8.82,0A1.46,1.46,0,0,1,36,56.7h0a1.45,1.45,0,0,1,1.45-1.46l8.82,0a1.48,1.48,0,0,1,1.47,1.46h0A1.48,1.48,0,0,1,46.23,58.14Z"/><path class="cls-3" d="M43.64,70.1l-8.81,0a1.46,1.46,0,0,1-1.47-1.46h0a1.47,1.47,0,0,1,1.46-1.46l8.82,0a1.47,1.47,0,0,1,1.46,1.46h0A1.46,1.46,0,0,1,43.64,70.1Z"/><path class="cls-3" d="M44.84,83.07,36,83.1a1.47,1.47,0,0,1-1.47-1.46h0A1.47,1.47,0,0,1,36,80.17l8.82,0a1.45,1.45,0,0,1,1.46,1.45h0A1.46,1.46,0,0,1,44.84,83.07Z"/><path class="cls-3" d="M45.33,94.56c-.25,1-.52,2-.82,2.93l-8.45,0a1.46,1.46,0,0,1-1.47-1.45A1.49,1.49,0,0,1,35,95a1.47,1.47,0,0,1,1-.43Z"/><circle class="cls-4" cx="31.42" cy="13.3" r="11.98" transform="translate(13.58 42.39) rotate(-81.43)"/><path class="cls-4" d="M38.45,30.61a7,7,0,1,1-7-7A7,7,0,0,1,38.45,30.61Z"/><path class="cls-4" d="M36.94,42a5.44,5.44,0,1,1-5.46-5.43A5.44,5.44,0,0,1,36.94,42Z"/><circle class="cls-4" cx="9.36" cy="23.57" r="9.36" transform="translate(-15.18 29.98) rotate(-82.98)"/><path class="cls-4" d="M13.64,38.77a5.6,5.6,0,1,0,1-7.86A5.6,5.6,0,0,0,13.64,38.77Z"/><path class="cls-4" d="M60.68,30.93A9.36,9.36,0,1,1,59,17.81,9.36,9.36,0,0,1,60.68,30.93Z"/><circle class="cls-4" cx="44.65" cy="37.01" r="5.6" transform="translate(-6.63 64.1) rotate(-67.51)"/><path class="cls-4" d="M35.94,45.63a1,1,0,0,1-.06-1.37L58.61,17.47A1,1,0,0,1,60,17.35a1,1,0,0,1,.12,1.43L37.42,45.57a1,1,0,0,1-1.43.11S36,45.65,35.94,45.63Z"/><path class="cls-4" d="M3.16,18h0a1.89,1.89,0,0,1-1.89-1.88h0a1.88,1.88,0,0,1,1.88-1.88h0A1.88,1.88,0,0,1,5,16.1H5A1.89,1.89,0,0,1,3.16,18Z"/><path class="cls-4" d="M31.14,4.38h0A2.2,2.2,0,0,1,29,2.19h0A2.18,2.18,0,0,1,31.13,0h0a2.19,2.19,0,0,1,2.19,2.18h0A2.2,2.2,0,0,1,31.14,4.38Z"/><path class="cls-4" d="M59.39,20.31h0a2.2,2.2,0,0,1-2.2-2.18h0a2.2,2.2,0,0,1,2.18-2.2h0a2.2,2.2,0,0,1,2.2,2.19h0A2.19,2.19,0,0,1,59.39,20.31Z"/></g></g></svg>