<svg xmlns="http://www.w3.org/2000/svg" viewBox="0 0 34.6 37.1"><defs><style>.cls-1{fill:#9e0e0e;}.cls-2{fill:#eb3522;}.cls-3{fill:#f9a4a2;}.cls-4{fill:#b2652b;}.cls-5{fill:#647a09;}.cls-6{fill:#7fa206;}</style></defs><title>cherry</title><g id="Слой_2" data-name="Слой 2"><g id="BACKGROUND_1" data-name="BACKGROUND 1"><path class="cls-1" d="M11.76,35.87A7.61,7.61,0,1,1,14,25.34,7.6,7.6,0,0,1,11.76,35.87Z"/><path class="cls-2" d="M13.62,24.85A7.6,7.6,0,0,0,.93,33.13Z"/><path class="cls-3" d="M8.72,25.83a1.64,1.64,0,1,1,.48-2.27A1.63,1.63,0,0,1,8.72,25.83Z"/><path class="cls-4" d="M13.32,25a.35.35,0,0,1,.06-.45c.08-.07,7.45-6.87,6.69-16a.37.37,0,0,1,.17-.33.33.33,0,0,1,.36,0,21.66,21.66,0,0,1,4.69,4A20.48,20.48,0,0,1,30.67,24a.37.37,0,0,1-.32.39.36.36,0,0,1-.39-.32c-.75-8.53-7.17-13.56-9.14-14.92a20.06,20.06,0,0,1-3.2,11.23,23.82,23.82,0,0,1-3.76,4.7.35.35,0,0,1-.5,0Z"/><path class="cls-1" d="M32.05,33.75A5.62,5.62,0,1,1,33.69,26,5.61,5.61,0,0,1,32.05,33.75Z"/><path class="cls-2" d="M33.43,25.61a5.62,5.62,0,0,0-9.38,6.12Z"/><path class="cls-3" d="M29.81,26.34a1.22,1.22,0,1,1,.35-1.68A1.21,1.21,0,0,1,29.81,26.34Z"/><path class="cls-5" d="M21.79,8.17,3.27,10.56S9.91-.95,21.79,8.17Z"/><path class="cls-6" d="M21.8,8.19,3.27,10.58S12.62,20,21.8,8.19Z"/><path class="cls-5" d="M33.68.32,21.8,8.22S22.46-1.91,33.68.32Z"/><path class="cls-6" d="M33.69.34,21.81,8.24S31.41,11.54,33.69.34Z"/></g></g></svg>