<svg xmlns="http://www.w3.org/2000/svg" viewBox="0 0 27.52 27.52"><defs><style>.cls-1{fill:#275114;}.cls-2{fill:#3b6823;}.cls-3{fill:#f4f27b;}.cls-4{fill:#f4f0ae;}.cls-5{fill:#77b54e;}</style></defs><title>cucumber</title><g id="Слой_2" data-name="Слой 2"><g id="BACKGROUND_1" data-name="BACKGROUND 1"><circle class="cls-1" cx="13.76" cy="13.76" r="13.76" transform="translate(-3.22 4.25) rotate(-15.76)"/><path class="cls-2" d="M14,0h-.25a13.76,13.76,0,0,0,0,27.52H14Z"/><path class="cls-3" d="M26.14,13.74A12.38,12.38,0,1,1,13.74,1.38,12.38,12.38,0,0,1,26.14,13.74Z"/><path class="cls-4" d="M13.91,1.38h-.17a12.38,12.38,0,0,0,0,24.76H14Z"/><path class="cls-5" d="M13,13.35h0a.53.53,0,0,1-.53-.53V9A.53.53,0,0,1,13,8.46h0a.52.52,0,0,1,.53.53v3.83A.53.53,0,0,1,13,13.35Z"/><path class="cls-5" d="M14.82,13.34h0a.53.53,0,0,1-.53-.53V9a.54.54,0,0,1,.53-.54h0a.53.53,0,0,1,.53.53v3.83A.53.53,0,0,1,14.82,13.34Z"/><path class="cls-5" d="M19.67,17.53h0a.54.54,0,0,1-.69.31L15.4,16.49a.52.52,0,0,1-.31-.68h0a.53.53,0,0,1,.68-.31l3.59,1.35A.53.53,0,0,1,19.67,17.53Z"/><path class="cls-5" d="M20.28,15.57h0a.52.52,0,0,1-.66.35L16,14.77a.53.53,0,0,1-.35-.66h0a.54.54,0,0,1,.67-.35l3.65,1.15A.52.52,0,0,1,20.28,15.57Z"/><path class="cls-5" d="M7.87,17.45h0a.53.53,0,0,0,.68.31l3.58-1.36a.53.53,0,0,0,.31-.68h0a.52.52,0,0,0-.68-.31L8.18,16.77A.52.52,0,0,0,7.87,17.45Z"/><path class="cls-5" d="M7.24,15.5h0a.54.54,0,0,0,.67.34l3.65-1.16A.53.53,0,0,0,11.9,14h0a.53.53,0,0,0-.66-.34L7.59,14.83A.54.54,0,0,0,7.24,15.5Z"/></g></g></svg>