<svg xmlns="http://www.w3.org/2000/svg" viewBox="0 0 32.62 15.45"><defs><style>.cls-1{fill:#7fa206;}.cls-2{fill:#e8f78d;}.cls-3{fill:#fff;}</style></defs><title>lime</title><g id="Слой_2" data-name="Слой 2"><g id="BACKGROUND_1" data-name="BACKGROUND 1"><path class="cls-1" d="M0,.33A16.21,16.21,0,0,0,4.88,10.8,16.34,16.34,0,0,0,28,10.53,16.3,16.3,0,0,0,32.62,0Z"/><path class="cls-2" d="M2.73.3A13.55,13.55,0,0,0,6.78,8.86,13.63,13.63,0,0,0,26,8.63,13.58,13.58,0,0,0,29.89,0Z"/><path class="cls-3" d="M15.79.17,13.07,13a.2.2,0,0,0,.16.25h0a.2.2,0,0,0,.2-.16l2.74-13Z"/><path class="cls-3" d="M14.68.18l-9,7.46a.21.21,0,0,0,0,.29A.2.2,0,0,0,5.8,8a.18.18,0,0,0,.13,0L15.34.17Z"/><path class="cls-3" d="M17.14.16h-.48L22.89,11a.21.21,0,0,0,.18.11.17.17,0,0,0,.1,0,.2.2,0,0,0,.08-.28Z"/><path class="cls-3" d="M29.25,0A13,13,0,0,1,25.56,8.3a13,13,0,0,1-9.2,3.93A13,13,0,0,1,7.11,8.52,13,13,0,0,1,3.23.29L2.09.31a14.1,14.1,0,0,0,4.22,9,14.11,14.11,0,0,0,10.06,4,14.11,14.11,0,0,0,10-4.27,14.1,14.1,0,0,0,4-9.08Z"/></g></g></svg>