<svg xmlns="http://www.w3.org/2000/svg" viewBox="0 0 53.69 53.69"><defs><style>.cls-1{fill:#f28d16;}.cls-2{fill:#f6a415;}.cls-3{fill:#f4f27b;}</style></defs><title>orange2</title><g id="Слой_2" data-name="Слой 2"><g id="BACKGROUND_1" data-name="BACKGROUND 1"><circle class="cls-1" cx="26.84" cy="26.84" r="26.84"/><circle class="cls-2" cx="26.84" cy="26.84" r="22.38"/><path class="cls-3" d="M39.31,47.07a.34.34,0,0,1-.29-.16L14.23,7.81a.34.34,0,1,1,.57-.36l24.8,39.1a.34.34,0,0,1-.11.47A.41.41,0,0,1,39.31,47.07Z"/><path class="cls-3" d="M24.48,49.43h0a.34.34,0,0,1-.3-.37l4.73-44.5a.34.34,0,0,1,.38-.3.33.33,0,0,1,.3.37l-4.73,44.5A.34.34,0,0,1,24.48,49.43Z"/><path class="cls-3" d="M10.2,43.53A.34.34,0,0,1,10,43l33.43-32a.34.34,0,0,1,.48,0,.34.34,0,0,1,0,.48l-33.43,32A.33.33,0,0,1,10.2,43.53Z"/><path class="cls-3" d="M48.37,33.31l-.1,0-43-12.24a.34.34,0,1,1,.19-.65l43,12.24a.33.33,0,0,1,.23.42A.34.34,0,0,1,48.37,33.31Z"/><path class="cls-3" d="M26.84,50.33A23.32,23.32,0,1,1,50.16,27,23.34,23.34,0,0,1,26.84,50.33Zm0-44.75A21.44,21.44,0,1,0,48.28,27,21.45,21.45,0,0,0,26.84,5.58Z"/></g></g></svg>