<svg xmlns="http://www.w3.org/2000/svg" viewBox="0 0 51.54 51.54"><defs><style>.cls-1{fill:#f28d16;}.cls-2{fill:#f6a415;}.cls-3{fill:#f4f27b;}.cls-4{fill:#f4cf16;}</style></defs><title>orange1</title><g id="Слой_2" data-name="Слой 2"><g id="BACKGROUND_1" data-name="BACKGROUND 1"><circle class="cls-1" cx="25.77" cy="25.77" r="25.77"/><circle class="cls-2" cx="25.77" cy="25.77" r="21.48"/><path class="cls-3" d="M37.74,45.19a.32.32,0,0,1-.28-.15L13.66,7.5a.33.33,0,0,1,.55-.35L38,44.69a.33.33,0,0,1-.1.45A.34.34,0,0,1,37.74,45.19Z"/><path class="cls-3" d="M23.5,47.46h0a.33.33,0,0,1-.29-.36L27.72,4.38a.33.33,0,0,1,.65.07L23.82,47.17A.32.32,0,0,1,23.5,47.46Z"/><path class="cls-3" d="M9.79,41.8a.34.34,0,0,1-.24-.11.33.33,0,0,1,0-.46l32.1-30.75a.33.33,0,0,1,.46,0,.34.34,0,0,1,0,.47L10,41.7A.32.32,0,0,1,9.79,41.8Z"/><path class="cls-3" d="M46.43,32h-.09L5,20.21a.33.33,0,1,1,.18-.63L46.52,31.33a.33.33,0,0,1,.23.41A.32.32,0,0,1,46.43,32Z"/><path class="cls-3" d="M25.77,48.32A22.39,22.39,0,1,1,48.15,25.94,22.41,22.41,0,0,1,25.77,48.32Zm0-43A20.59,20.59,0,1,0,46.35,25.94,20.61,20.61,0,0,0,25.77,5.35Z"/><path class="cls-4" d="M12.16,27.92a2,2,0,1,1-2-2A2,2,0,0,1,12.16,27.92Z"/><path class="cls-4" d="M18.43,27.59a1.5,1.5,0,1,1-1.49-1.5A1.49,1.49,0,0,1,18.43,27.59Z"/><path class="cls-4" d="M29.94,40.52a.95.95,0,1,1-1-1A.95.95,0,0,1,29.94,40.52Z"/><path class="cls-4" d="M19.41,39.79a1.18,1.18,0,1,1-1.18-1.18A1.18,1.18,0,0,1,19.41,39.79Z"/><circle class="cls-4" cx="37.72" cy="23.03" r="1.1"/></g></g></svg>