<svg xmlns="http://www.w3.org/2000/svg" viewBox="0 0 15.92 43.96"><defs><style>.cls-1{fill:#7fa206;}.cls-2{fill:#647a09;}</style></defs><title>pea</title><g id="Слой_2" data-name="Слой 2"><g id="BACKGROUND_1" data-name="BACKGROUND 1"><path class="cls-1" d="M15.92,7.93A7.91,7.91,0,1,1,8.05,0,7.91,7.91,0,0,1,15.92,7.93Z"/><path class="cls-2" d="M8.05,0H8L7.93,15.81H8A7.91,7.91,0,0,0,8.05,0Z"/><circle class="cls-1" cx="7.9" cy="21.38" r="7.9" transform="matrix(0.55, -0.84, 0.84, 0.55, -14.31, 16.27)"/><path class="cls-2" d="M7.93,13.47H7.87l-.06,15.8h.06a7.91,7.91,0,1,0,.06-15.81Z"/><circle class="cls-1" cx="7.91" cy="36.06" r="7.9" transform="translate(-26.58 22.9) rotate(-56.75)"/><path class="cls-2" d="M7.94,28.15H7.88L7.82,44h.06a7.91,7.91,0,0,0,.06-15.81Z"/></g></g></svg>