<svg xmlns="http://www.w3.org/2000/svg" viewBox="0 0 53.21 80.75"><defs><style>.cls-1{fill:#eb3522;}.cls-2{fill:#ce291d;}.cls-3{fill:#7fa206;}</style></defs><title>pepper</title><g id="Слой_2" data-name="Слой 2"><g id="BACKGROUND_1" data-name="BACKGROUND 1"><path class="cls-1" d="M27.16,68.81h0a10.92,10.92,0,0,1-13.48-7.5L5.07,31.14a10.94,10.94,0,0,1,7.5-13.49h0a10.93,10.93,0,0,1,13.48,7.5l8.61,30.18A10.92,10.92,0,0,1,27.16,68.81Z"/><path class="cls-2" d="M22.51,77.12h0A10.94,10.94,0,0,1,9,69.62L.42,39.44A11,11,0,0,1,7.92,26h0a10.93,10.93,0,0,1,13.48,7.5L30,63.63A10.94,10.94,0,0,1,22.51,77.12Z"/><path class="cls-2" d="M25.1,68.81h0a11,11,0,0,0,13.51-7.47l8.68-30.16a11,11,0,0,0-7.47-13.5h0a11,11,0,0,0-13.51,7.47L17.63,55.31A10.94,10.94,0,0,0,25.1,68.81Z"/><path class="cls-1" d="M30.6,77.2h0a11,11,0,0,0,13.51-7.47l8.68-30.16a10.94,10.94,0,0,0-7.47-13.5h0a10.94,10.94,0,0,0-13.5,7.47L23.14,63.69A11,11,0,0,0,30.6,77.2Z"/><path class="cls-3" d="M37.8,24.38c0,2-5.18,3.59-11.58,3.59s-11.57-1.63-11.57-3.62,5.19-3.6,11.58-3.59S37.8,22.38,37.8,24.38Z"/><path class="cls-3" d="M27.12,26a2.59,2.59,0,0,1-2.59-2.6l0-14a3.28,3.28,0,0,0-1.18-2.76c-2.64-2.12-9-1.42-11-1A2.59,2.59,0,0,1,11.35.58c1-.22,10.25-2,15.26,2a8.47,8.47,0,0,1,3.13,6.77l0,14A2.59,2.59,0,0,1,27.12,26Z"/><rect class="cls-1" x="-2.14" y="44.24" width="55.87" height="17.16" rx="6.64" transform="translate(-27.05 78.55) rotate(-89.93)"/><path class="cls-2" d="M27.77,24.88H25.63l-.07,55.87H27.7a6.65,6.65,0,0,0,6.65-6.63l0-42.59A6.67,6.67,0,0,0,27.77,24.88Z"/></g></g></svg>