<svg xmlns="http://www.w3.org/2000/svg" viewBox="0 0 40.6 49.14"><defs><style>.cls-1{fill:#7fa206;}.cls-2{fill:#728912;}.cls-3{fill:#ea285b;}.cls-4{fill:#d00028;}.cls-5{fill:#f45b8e;}.cls-6{fill:#fdfae9;}</style></defs><title>redish</title><g id="Слой_2" data-name="Слой 2"><g id="BACKGROUND_1" data-name="BACKGROUND 1"><path class="cls-1" d="M26.59,6.29A6.39,6.39,0,1,1,20.1,0,6.4,6.4,0,0,1,26.59,6.29Z"/><path class="cls-1" d="M24.07,15.57a3.73,3.73,0,1,1-3.78-3.67A3.72,3.72,0,0,1,24.07,15.57Z"/><path class="cls-1" d="M23.34,21.66a2.91,2.91,0,1,1-2.95-2.86A2.89,2.89,0,0,1,23.34,21.66Z"/><path class="cls-2" d="M20.28,0l.19,12.77A6.39,6.39,0,0,0,20.28,0Z"/><path class="cls-2" d="M20.46,11.91l.11,7.43a3.72,3.72,0,0,0-.11-7.43Z"/><path class="cls-2" d="M20.57,18.81l.08,5.79a2.9,2.9,0,0,0-.08-5.79Z"/><circle class="cls-1" cx="34.95" cy="14.48" r="5.65" transform="translate(17.03 47.8) rotate(-84.23)"/><path class="cls-1" d="M31.55,22.61a3.3,3.3,0,1,1,0-4.66A3.29,3.29,0,0,1,31.55,22.61Z"/><path class="cls-1" d="M27.25,25.93a2.57,2.57,0,1,1,0-3.63A2.56,2.56,0,0,1,27.25,25.93Z"/><path class="cls-2" d="M39,10.57l-7.94,8a5.65,5.65,0,0,0,7.94-8Z"/><path class="cls-2" d="M31.63,18.06,27,22.75a3.3,3.3,0,0,0,4.63-4.69Z"/><path class="cls-2" d="M27.34,22.41l-3.61,3.64a2.57,2.57,0,0,0,3.61-3.64Z"/><path class="cls-1" d="M1.76,19.16a5.65,5.65,0,1,0-.2-8A5.64,5.64,0,0,0,1.76,19.16Z"/><path class="cls-1" d="M9.3,23.09a3.3,3.3,0,1,0-.11-4.66A3.3,3.3,0,0,0,9.3,23.09Z"/><path class="cls-1" d="M13.7,26.27a2.57,2.57,0,1,0-.09-3.63A2.56,2.56,0,0,0,13.7,26.27Z"/><path class="cls-2" d="M1.45,11.28l8.19,7.79a5.65,5.65,0,0,1-8.19-7.79Z"/><path class="cls-2" d="M9.08,18.54l4.77,4.54a3.3,3.3,0,0,1-4.77-4.54Z"/><path class="cls-2" d="M13.51,22.75l3.71,3.54a2.57,2.57,0,0,1-3.71-3.54Z"/><path class="cls-3" d="M31.18,35.27a7.91,7.91,0,0,1-1.24,4.37,14.38,14.38,0,0,1-3.31,3.25,18.14,18.14,0,0,0-1.93,2c-.46.53-.92,1.06-1.41,1.56l-2.63,2.7-3.93-3.78-.43-.42-1.9-1.83c-1.11-1.09-2.54-2-3.39-3.3a8.11,8.11,0,0,1-1.3-4.21c-.07-5,4.67-9.16,10.6-9.25S31.11,30.25,31.18,35.27Z"/><path class="cls-4" d="M20.31,26.35h-.15L20.51,49l.15.14,2.63-2.7c1.14-1.16,2.1-2.49,3.34-3.55a14.38,14.38,0,0,0,3.31-3.25,7.91,7.91,0,0,0,1.24-4.37C31.11,30.25,26.24,26.26,20.31,26.35Z"/><path class="cls-5" d="M16.3,30a.68.68,0,1,1-.69-.67A.68.68,0,0,1,16.3,30Z"/><path class="cls-6" d="M24.7,44.88c-.46.53-.92,1.06-1.41,1.56l-2.63,2.7-3.93-3.78-.43-.42a7.76,7.76,0,0,1,4.13-1.16A7.79,7.79,0,0,1,24.7,44.88Z"/></g></g></svg>