<svg xmlns="http://www.w3.org/2000/svg" viewBox="0 0 82.2 107.46"><defs><style>.cls-1{fill:#275114;}.cls-2{fill:#3f9b1c;}.cls-3{fill:#f4f27b;}.cls-4{fill:#ccc76d;}</style></defs><title>salad</title><g id="Слой_2" data-name="Слой 2"><g id="BACKGROUND_1" data-name="BACKGROUND 1"><ellipse class="cls-1" cx="59.11" cy="40.47" rx="33.39" ry="18.39" transform="translate(-5.52 71.36) rotate(-59.94)"/><ellipse class="cls-1" cx="22.71" cy="39.22" rx="18.39" ry="33.39" transform="translate(-15.99 15.62) rotate(-28.55)"/><ellipse class="cls-2" cx="41.18" cy="33.39" rx="33.39" ry="18.39" transform="translate(7.25 74.13) rotate(-89.25)"/><path class="cls-3" d="M40.77,38.66h0c-3.4-.24-6.34-2.16-8.49-5.55a18.35,18.35,0,0,1-2.22-5,.82.82,0,0,1,1.59-.39h0a17.57,17.57,0,0,0,2,4.56C35.54,35.22,38,36.81,40.84,37a.82.82,0,0,1-.07,1.64Z"/><path class="cls-3" d="M41.23,38.74a.83.83,0,0,1,0-1.65c7-.3,9.45-9,9.47-9.06a.82.82,0,0,1,1.59.44,19,19,0,0,1-2.35,5c-2.24,3.33-5.23,5.17-8.64,5.32Z"/><path class="cls-3" d="M40.75,48.88h0c-3.4-.24-6.34-2.15-8.49-5.55a18.5,18.5,0,0,1-2.22-5,.82.82,0,0,1,1.6-.4h0a17.33,17.33,0,0,0,2,4.56c1.89,2.95,4.31,4.55,7.2,4.75a.82.82,0,0,1-.07,1.64Z"/><path class="cls-3" d="M41.2,49a.82.82,0,0,1,0-1.64c7-.31,9.44-9,9.47-9.06a.82.82,0,1,1,1.58.43,18.23,18.23,0,0,1-2.35,5C47.64,47,44.65,48.81,41.25,49Z"/><path class="cls-3" d="M40.27,59.77h-.05c-3.4-.23-6.33-2.15-8.49-5.54a18.87,18.87,0,0,1-2.22-5,.83.83,0,0,1,.6-1,.84.84,0,0,1,1,.61,17.59,17.59,0,0,0,2,4.55c1.89,3,4.31,4.55,7.2,4.75a.83.83,0,0,1-.07,1.65Z"/><path class="cls-3" d="M40.72,59.85a.83.83,0,0,1,0-1.65c2.89-.12,5.35-1.66,7.32-4.56a17.53,17.53,0,0,0,2.15-4.5.82.82,0,0,1,1.59.44,19,19,0,0,1-2.35,5c-2.25,3.33-5.23,5.17-8.64,5.32Z"/><path class="cls-3" d="M40.54,60s-.6,46.19-.6,46.19c-4.74-.67-7.85-2.45-10.44-6.41-4-6.13,2.67-13.44,5.34-19.26C37.85,74,40.45,67.29,40.54,60Z"/><path class="cls-4" d="M40.3,60s-.61,46.19-.61,46.19c4.76-.54,7.92-2.23,10.6-6.13,4.14-6-2.31-13.51-4.83-19.4C42.63,74,40.2,67.28,40.3,60Z"/><rect class="cls-3" x="-0.77" y="64.42" width="82.37" height="3.71" rx="1.61" transform="translate(-26.38 105.82) rotate(-89.26)"/></g></g></svg>