<svg xmlns="http://www.w3.org/2000/svg" viewBox="0 0 47.54 57.08"><defs><style>.cls-1{fill:#cc2619;}.cls-2{fill:#eb3522;}.cls-3{fill:#ed483b;}.cls-4{fill:#ffdc48;}.cls-5{fill:#7fa206;}.cls-6{fill:#647a09;}</style></defs><title>tomato2</title><g id="Слой_2" data-name="Слой 2"><g id="BACKGROUND_1" data-name="BACKGROUND 1"><circle class="cls-1" cx="23.77" cy="33.31" r="23.77" transform="translate(-16.59 26.56) rotate(-45)"/><circle class="cls-2" cx="23.77" cy="33.31" r="22.27" transform="translate(-16.59 26.56) rotate(-45)"/><path class="cls-3" d="M23.24,11.05a22.27,22.27,0,0,0,.21,44.53Z"/><path class="cls-1" d="M42.38,33.22A18.62,18.62,0,1,1,23.68,14.7,18.62,18.62,0,0,1,42.38,33.22Z"/><rect class="cls-2" x="21.34" y="11.67" width="4.76" height="42.28" transform="translate(-0.16 0.11) rotate(-0.27)"/><rect class="cls-3" x="21.34" y="11.68" width="2" height="42.28" transform="translate(-0.15 0.11) rotate(-0.27)"/><path class="cls-2" d="M29.05,33.75a5.67,5.67,0,1,1-5.69-5.64A5.66,5.66,0,0,1,29.05,33.75Z"/><path class="cls-3" d="M23.45,28.11h-.09a5.67,5.67,0,1,0,.06,11.33h.09Z"/><rect class="cls-4" x="16.93" y="19.95" width="1.36" height="5.08" rx="0.45" transform="translate(-9.56 13.68) rotate(-33.97)"/><rect class="cls-4" x="12.87" y="23.71" width="1.36" height="5.08" rx="0.45" transform="translate(-15.97 25) rotate(-60.28)"/><rect class="cls-4" x="10.85" y="29" width="1.36" height="5.08" rx="0.45" transform="translate(-20.66 41.1) rotate(-86.45)"/><rect class="cls-4" x="10.88" y="34.68" width="1.36" height="5.08" rx="0.45" transform="translate(-18.85 61.6) rotate(-111.47)"/><rect class="cls-4" x="13.14" y="39.23" width="1.36" height="5.08" rx="0.45" transform="translate(-9.45 79.12) rotate(-129.76)"/><rect class="cls-4" x="17.04" y="42.61" width="1.36" height="5.08" rx="0.45" transform="translate(14.82 93.56) rotate(-155.15)"/><rect class="cls-4" x="28.97" y="19.81" width="1.36" height="5.08" rx="0.45" transform="translate(42.09 57.34) rotate(-146.57)"/><rect class="cls-4" x="33.07" y="23.54" width="1.36" height="5.08" rx="0.45" transform="matrix(-0.5, -0.86, 0.86, -0.5, 28.25, 68.37)"/><rect class="cls-4" x="35.14" y="28.81" width="1.36" height="5.08" rx="0.45" transform="translate(7.11 69.31) rotate(-94.09)"/><rect class="cls-4" x="35.16" y="34.49" width="1.36" height="5.08" rx="0.45" transform="translate(-11.55 57.28) rotate(-69.07)"/><rect class="cls-4" x="32.94" y="39.06" width="1.36" height="5.08" rx="0.45" transform="translate(-19.87 41.35) rotate(-50.79)"/><rect class="cls-4" x="29.08" y="42.47" width="1.36" height="5.08" rx="0.45" transform="translate(-16.43 17.12) rotate(-25.41)"/><path class="cls-5" d="M23.39,9.76,7.65,9.83c.78-4.49,7.17,1.12,9-2,.75-1.3.45-2.62,2.49-2.67C20.77,5.07,21.67,6.47,22,8c.13-2-.63-3.91-.53-5.92,0-.93,1.13-3,2.12-1.48Z"/><path class="cls-6" d="M23.41,9.76l15.75-.08c-.83-4.48-7.17,1.18-9-1.95-.76-1.31-.47-2.62-2.51-2.66C26,5,25.1,6.45,24.76,8c-.14-2,.59-3.91.48-5.92,0-.93-1.17-3-2.14-1.47Z"/></g></g></svg>