<svg xmlns="http://www.w3.org/2000/svg" viewBox="0 0 39.08 19.54"><defs><style>.cls-1{fill:#cc2619;}.cls-2{fill:#eb3522;}.cls-3{fill:#ffdc48;}</style></defs><title>tomato1</title><g id="Слой_2" data-name="Слой 2"><g id="BACKGROUND_1" data-name="BACKGROUND 1"><path class="cls-1" d="M0,.21A19.54,19.54,0,0,0,19.57,19.54,19.54,19.54,0,0,0,39.08,0Z"/><path class="cls-2" d="M1.23.2A18.31,18.31,0,0,0,19.57,18.31,18.32,18.32,0,0,0,37.85,0Z"/><path class="cls-1" d="M4.24.18A15.29,15.29,0,0,0,19.56,15.3,15.3,15.3,0,0,0,34.84,0Z"/><polygon class="cls-2" points="2.57 0.19 2.57 1.95 37.33 1.89 37.33 0.01 2.57 0.19"/><path class="cls-2" d="M14.52.13a4.65,4.65,0,0,0,4.65,4.21A4.66,4.66,0,0,0,23.8.08Z"/><rect class="cls-3" x="27.97" y="2.78" width="1.12" height="4.18" rx="0.37" transform="translate(8.69 25.94) rotate(-56.39)"/><rect class="cls-3" x="24.9" y="6.13" width="1.12" height="4.18" rx="0.37" transform="translate(-0.69 13.87) rotate(-30.1)"/><rect class="cls-3" x="20.56" y="7.82" width="1.12" height="4.18" rx="0.37" transform="translate(-0.63 1.47) rotate(-3.92)"/><rect class="cls-3" x="15.89" y="7.83" width="1.12" height="4.18" rx="0.37" transform="translate(4.67 -5.26) rotate(21.1)"/><rect class="cls-3" x="12.14" y="5.99" width="1.12" height="4.18" rx="0.37" transform="translate(8.01 -6.22) rotate(39.39)"/><rect class="cls-3" x="9.34" y="2.81" width="1.12" height="4.18" rx="0.37" transform="matrix(0.43, 0.9, -0.9, 0.43, 10.11, -6.15)"/></g></g></svg>