<svg xmlns="http://www.w3.org/2000/svg" viewBox="0 0 128.92 61"><defs><style>.cls-1{fill:#55c62e;}.cls-2{fill:#3f9b1c;}.cls-3{fill:#fdfae9;}.cls-4{fill:#eb3522;}.cls-5{fill:#ce291d;}.cls-6{fill:#3a1010;}</style></defs><title>watermelon</title><g id="Слой_2" data-name="Слой 2"><g id="BACKGROUND_1" data-name="BACKGROUND 1"><path class="cls-1" d="M0,0A64.55,64.55,0,0,0,64.41,61,64.57,64.57,0,0,0,128.92.11Z"/><path class="cls-2" d="M66.56.05l0,60.92A64.58,64.58,0,0,0,128.92.11Z"/><path class="cls-3" d="M6.29,0A58.28,58.28,0,0,0,64.41,54.72,58.28,58.28,0,0,0,122.63.1Z"/><path class="cls-4" d="M12.38,0a52.21,52.21,0,0,0,52,48.64A52.2,52.2,0,0,0,116.53.1Z"/><path class="cls-5" d="M67,.06l0,48.53A52.2,52.2,0,0,0,116.53.1Z"/><path class="cls-6" d="M35.68,12.09a2,2,0,1,1-2-2A2,2,0,0,1,35.68,12.09Z"/><path class="cls-6" d="M59.32,23.48a2,2,0,1,1-2-2A2,2,0,0,1,59.32,23.48Z"/><path class="cls-6" d="M25.26,6.75a2,2,0,1,1-2-1.95A2,2,0,0,1,25.26,6.75Z"/><circle class="cls-6" cx="103.6" cy="7.66" r="1.95"/><path class="cls-6" d="M101.63,24.35a2,2,0,1,1-1.95-2A2,2,0,0,1,101.63,24.35Z"/><circle class="cls-6" cx="77.13" cy="31.31" r="1.95" transform="matrix(0.55, -0.84, 0.84, 0.55, 8.69, 78.7)"/><path class="cls-6" d="M79.1,14.08a2,2,0,1,1-1.95-2A2,2,0,0,1,79.1,14.08Z"/><path class="cls-6" d="M44.44,27.37a2,2,0,1,1-1.95-1.95A2,2,0,0,1,44.44,27.37Z"/><path class="cls-6" d="M55.32,38a2,2,0,1,1-2-2A2,2,0,0,1,55.32,38Z"/><path class="cls-6" d="M53.39,10.53A2.53,2.53,0,1,1,50.86,8,2.53,2.53,0,0,1,53.39,10.53Z"/><path class="cls-6" d="M91.77,10.18a2.53,2.53,0,1,1-2.53-2.53A2.53,2.53,0,0,1,91.77,10.18Z"/></g></g></svg>