<svg xmlns="http://www.w3.org/2000/svg" viewBox="0 0 3757.82 1130.29"><defs><style>.cls-1{fill:#474747;}</style></defs><title>bowl</title><g id="Слой_2" data-name="Слой 2"><g id="Layer_2" data-name="Layer 2"><g id="plate"><path class="cls-1" d="M2354,1113.08c-30.51-.52-66.5,3.91-102.6,6.6-17.67,1.31-35.44,1.69-53.21,1.86-30.8.31-61.58,1.55-92.38,2.18-9.73.19-19.51-1-29.21-.42-23.72,1.3-47.43,2.58-71.11,5-21.43,2.19-43.16,1.42-64.75,1.94-27.57.67-54.89-4.38-82.49-3.52s-55,1-82.49,1.94c-17.87.59-35.65-.68-53.46-1.33-15.06-.55-30.11-1.22-45.17-2.47-13.84-1.15-27.83-1.08-41.73-2.1-19.33-1.42-38.68-2.5-58-3.85-32.24-2.25-64.33-7.35-96.79-5.62-6.51.34-12.71-3.26-19.26-1.09-19.19-3.49-38.75-.54-58.09-3.86-15.86-2.71-32.21-2.49-48.34-3.72-4.84-.37-9.67-1.14-14.47-1.92-2.12-.34-4.16-1.65-6.24-1.67-18.32-.14-36.39-3.16-54.61-4.44-17.73-1.24-35.37-3.42-53-4.91-16.67-1.4-33.06-5.55-50-4.82-5.76.25-11.59-2.47-17.43-2.73-18.87-.82-37.45-5.1-56.18-5.65-21.1-.63-41.89-5.29-63.11-3.74-6.39.47-13,.37-19.29-1.9s-13-.35-19.37-1.46a462.16,462.16,0,0,0-54.56-6.2c-21.72-1.14-43.15-5.53-64.08-10.56-27-6.47-54.06-8.67-81.51-10.1-19.35-1-38.59-4-57.87-6.21-14.41-1.66-28.75-4-43.19-5.1-7.63-.59-14.78-2.31-22.15-4-26.7-6.3-53.58-12.15-80.87-15-14.92-1.56-30-2.35-44.69-5.25-18.36-3.62-36.62-7.77-54.83-12.12-21.49-5.12-42.85-10.82-64.33-16-6.23-1.51-12.74-.71-19.11-2.86-11.7-4-24.66-3.87-35.48-10.83-12.69-1-23.91-6.66-35.38-11.34-17.49-7.15-35.13-13.87-52-22.65-11.91-6.21-24.7-10.91-37.43-15.32-8.18-2.83-15.66-7.14-23.45-10.58-9.91-4.38-20.49-6.17-30.39-10.57a204.55,204.55,0,0,1-43.13-25.32c-9-7-18.86-12.27-28.5-18-15.24-9.06-28.29-19.84-34.09-37.41C80.88,775.77,63.1,737.41,48.2,698c-7.46-19.76-12.26-40.36-17.53-60.79-2.43-9.42-4.4-19-7.77-28.1C14,585,10,560,7.39,534.55c-1.44-14-3.65-27.93-5.86-41.83a108,108,0,0,1-.1-35.6c.45-2.66,1.26-5.35,1.19-8-.75-31.53,14-55.75,35.78-76.8,22.85-22,49.56-38.47,77.48-53s55.81-28.56,84-42.16c22.41-10.79,44.9-21.59,68.05-30.61,37.77-14.7,74.81-31.4,113.56-43.48,19.59-6.11,39.54-11,59.34-16.46,12-3.29,24.12-6.3,36.06-9.85,24.42-7.25,49.44-11.73,74.36-16.76,30.74-6.21,61.64-11.8,92.13-19.12,36.94-8.87,74.59-13.3,111.85-20.13,47.39-8.7,94.89-16.84,142.1-26.41,27.67-5.62,55.77-7.78,83.46-12.77,17.58-3.16,35.44-2.93,53.07-6,38.41-6.77,77.06-12.13,115.61-18.07q22.5-3.47,45.2-5.23c32.4-2.57,64.73-6,97.1-8.84,16.18-1.44,32.38-2.72,48.6-3.72q64.11-4,127.79-12.29c13.42-1.76,27-2.34,40.5-3.37,48.64-3.67,97.27-7.58,145.94-10.84,24.87-1.66,49.83-1.94,74.73-3.17,28.14-1.4,56.26-3.19,84.39-4.74,9.19-.5,18.4-1.12,27.59-1.07,29.3.17,58.5-2.17,87.75-3,25.46-.71,51-2,76.4-.55,49.84,2.84,99.71,1.66,149.54,3.1,28.69.83,57.34,3,86,4.73a159,159,0,0,0,22.68-.57c13.48-1.1,27.05-1.38,40.59-1.47,23.3-.17,46.62-.57,69.89.31,27,1,54,3.31,81.05,5.09,17.3,1.14,34.65,3.9,51.87,3.22C2540.91,13.74,2574,20,2607.44,22c38.48,2.35,76.23,10,114.3,15.25,35.33,4.91,70.4,11.8,106,14.71a51.43,51.43,0,0,1,8.05,1.08c17.41,4.27,35.4,4.69,52.93,8,35,6.67,70.72,9.81,105.08,20a88.89,88.89,0,0,0,11.07,2.58c23,3.78,46,7,68.92,11.28,23.91,4.45,47.66,9.78,71.45,14.85,8.44,1.8,16.81,4,25.22,5.94,37.34,8.72,74.48,18.45,112.09,25.83,31.33,6.15,61.41,16.28,92,24.7a20.1,20.1,0,0,1,3.18.61c22.14,10.24,46.32,14.3,69,22.91,2,.77,4.1,1.35,6.09,2.18,17.94,7.47,35.9,14.88,53.77,22.5a432.72,432.72,0,0,1,57.58,29.39c14.71,9.06,29.86,17.52,44.92,26,33.46,18.91,62.37,43.41,87.52,71.95,18.52,21,36.23,43.18,45.89,70.33,2,5.54,5.54,10.49,7.74,16,9.14,22.83,8.58,46.56,5.6,70.35-1.21,9.68-2.72,19.23-1.59,29a21.21,21.21,0,0,1-1,9.6c-7.14,18.91-7.73,39.13-12.07,58.58-5.63,25.31-8.49,51.17-15.67,76.18-3.72,13-3.31,26.83-7.51,39.79-.82,2.54-.58,5.57-1.83,7.82-9.54,17.22-13.2,36.54-19.84,54.79-6.08,16.71-15.55,29.86-31.26,39.76-19.26,12.13-39.11,23.15-58.73,34.59-6,3.5-13.3,4.83-19.27,8.37-23.44,13.89-49.13,22.47-74.25,32.41-20.61,8.16-41.13,16.55-61.73,24.75q-46.72,18.59-93.49,37.07c-21.05,8.34-41.83,17.48-63.22,24.85-25,8.62-50.5,15.85-75.87,23.39-15.53,4.62-31.15,9-46.88,12.9-15.15,3.77-30.49,6.8-45.75,10.12-46.6,10.14-93.85,16.42-140.93,23.72-15.42,2.39-30.78,5.43-46.12,8.16s-31,4.32-46.36,7c-32,5.53-64.4,6.76-96.5,10.91-30.46,3.93-60.9,8-91,14.36-8.88,1.89-18.11,2.33-27.22,3-10.23.69-20.51.75-30.76,1.25-17.82.86-35.46,3.36-53.14,5.66-12.82,1.67-25.77,2.45-38.68,3.34-36.66,2.52-73.39,4.3-110,7.5C2416.73,1109.86,2388.34,1112.9,2354,1113.08ZM3652.44,794.47a21.8,21.8,0,0,0-14.92,3.32c-1.24.82-3.07,1.7-1.89,3.59.76,1.22,2.11,2.72,3.35,2.88,6.43.83,9.88-1.94,13.2-10,3.2-2.33,7.69-.6,10.82-3.62,1.34-1.29,1.84-2.37,1-3.79-1-1.76-2.53-.75-4-.55C3655.13,786.94,3655.78,792.52,3652.44,794.47ZM213.27,855.34c7.21,2.76,13.29,5,19.3,7.42,4.51,1.82,9,3.8,13.36,5.87,1.45.68,2.77,2.17,1.42,3.7-.93,1.07-2.93,2.17-4.1,1.86a90.47,90.47,0,0,1-10.63-3.91c-6-2.39-12-5-18.11-7.19-1.93-.7-4.44-1.14-6.23-.47s-3.4,2.67-4.31,4.48c-.36.71,1.11,3.16,2.25,3.66,4.44,2,9.07,3.5,13.66,5.07C237.8,882,255.75,887.92,273,895.9c20.63,9.55,41.38,18.88,62.37,27.62,32.51,13.54,65.44,25.74,100.37,32a433.85,433.85,0,0,1,55,14.21c10.81,3.46,21.78,6.53,32.85,9,22.71,5,45.32,10.45,68.7,12.16,29.2,2.13,58.09,6.68,86.33,14.9,6.2,1.81,12.73,2.62,19.17,3.43,14,1.77,28.05,2.8,42,5a513.52,513.52,0,0,0,53.34,5.62c14.07.69,28.17,1.32,42.16,2.83,14.53,1.56,29.14,3.3,43.38,6.48,20.66,4.61,41.35,8.51,62.49,10,13.5,1,27,2.12,40.47,3.6,14,1.54,27.84,4.17,41.83,5.26,30.75,2.4,61.56,4,92.33,6.18,17.27,1.24,34.51,3,51.76,4.57,10.77,1,21.63,1.36,32.3,3,25.73,4,51.64,5.84,77.56,7.81,31.85,2.44,63.77,4.47,95.46,8.34,29.62,3.61,59.31,5,89,6.46,32.45,1.55,64.85,2.88,97.21,6.41,50.08,5.46,100.4,8.52,150.71,11.18,14,.75,28.12,2,42.17,1.77,33.49-.47,67-1.52,100.46-2.6a562.87,562.87,0,0,1,56.77,1.2c32.49,2.23,64.91,1.43,97.34-1.26,29.1-2.41,58.21-4.27,87.49-3.54,21.6.54,43.24-.61,64.86-1.24,5.92-.17,11.89-2.1,17.7-1.6,19,1.63,37.8.83,56.73-.79,23.2-2,46.52-2.53,69.7-4.61,17.31-1.55,34.59-2.34,51.94-2.52,19.49-.19,39,.13,58.36-2.77,25.65-3.84,51.59-3.93,77.33-6.56,9.68-1,19.47-.91,29.21-1.41,13.47-.68,26.87-2.47,40.32-3.48,10.71-.8,21.83.47,32.21-2.62,15.23-4.52,31.28-1.8,46.43-6.22,24.41.22,48.49-2.63,72.61-6.3,22.45-3.43,44.72-7.87,67.4-10.21,25.21-2.61,50.32-6.46,75.61-8.65,5.93-.52,11.86-1.28,17.71-2.35,10.11-1.84,20.25-4.24,30.31-5.5,17.1-2.15,34-5.23,51.08-7.66,18.18-2.59,36.46-4.64,54.48-8,8.6-1.63,17.22-1.59,25.78-2.83,23.53-3.43,47.11-6.56,70.58-10.37,19.57-3.18,39.25-6.21,58.43-11.07,14.61-3.7,29.46-6.22,44-10.69,24.73-7.6,50.11-12.89,74.18-22.88,17.37-7.2,35.43-12.76,53.13-19.18,16.69-6.05,33.33-12.23,50-18.42,17.66-6.58,35.85-12,52.74-20.21,17.53-8.48,35.87-14.74,53.92-21.56,13-4.91,26.25-9.67,39.77-13.34,6.78-1.85,13.08-5,19.52-7.88,13.87-6.22,26.75-14.07,39.87-21.61,11.69-6.71,23.93-12.47,35.9-18.7a22.42,22.42,0,0,0,5.43-3.55,2.88,2.88,0,0,0-.29-4.19c-2.33-2.34-4.71-4.67-8.43-3.38-4.49,1.55-8.69,4.14-14.25,3.82,3.08-2.22,5.84-4.08,8.45-6.14,1.18-.93,2.48-2.13,1.58-4s-3.52-3.41-2.12-5.53c2.35-3.54,4.6,0,6.83.76,2.05.68,4.14,1.83,6.2.64,4-2.34,9.53-3.35,9.69-9.63,4.5-2.35,10.54.52,14.36-4.34.91-1.15,1.2-1.78,0-2.69-.42-.32-.69-.86-1.12-1.17-2-1.48-3.92-.47-6,.07-5.24,1.34-5.44,1.12-3.76-4.5a4.59,4.59,0,0,0-.58-4.38c-2-2.83-6.62-3.68-6.08-8.36,3.81-1.88,6.33,1.14,8.6,2.95,7.12,5.65,12.58,3.41,18.38-3-4.39-3.52-7.36-8.33-13.93-7.4-2.22.31-4.56-.89-4.13-3.58.57-3.53-4.47-4.68-3-8.52,4.91-2.84,8.62,4.31,13.53,1.91,4.35-2.12,9-3.81,12.35-7.55-1.83-3.78-4.62-6-8.81-4.73s-7.83,3.92-12.39,3.2a3.86,3.86,0,0,1-2.63-1.51,3.18,3.18,0,0,1,.74-2.82,14.37,14.37,0,0,1,4-2.68c3.31-1.52,3.6-3.56,1.19-6-1.13-1.16-2.61-2-3.76-3.1-3.65-3.59-3.58-4.82.25-7.13,4.16-2.52,8.47-4.82,12.41-7.64,1.52-1.08,2.9-3.14.24-5.19-4.91-3.82-9.76-6.88-16.1-2.88-2.2,1.38-4.48,3.27-7.49,1.76.08-4.72,4.72-5.36,7.2-7.94,2.25-2.34,1.58-4.38-1.47-6.22a7.43,7.43,0,0,0-7.65-.48c-3.8,1.91-7.43,4.22-12.16,3.64,2.27-2.21,4.56-4.21,6.58-6.46,1.6-1.77.53-4-1.72-4.94-2.76-1.1-5.11-.63-7.71.57-6.38,3-12.86,5.7-19.36,8.38-2,.83-4.26,2.93-7-.37,6.84-4,13.32-7.78,19.71-11.68,2.59-1.58,2.05-4.59-1-6.31-1.85-1.06-3.66-2.49-6-1.38-1.95,1-3.81,2.07-5.71,3.12-16.51,9.14-32.58,19.24-49.67,27.14-18.09,8.36-36.85,15.33-54.87,24-4.87,2.33-9.7,5-14.84,6.52-19.07,5.72-37.24,14.24-56.84,18.33a57,57,0,0,0-7.8,2.24c-20.71,7.64-41.61,14.65-63.32,19-10.6,2.12-21.49,3.37-31.68,6.72a254.73,254.73,0,0,1-44.07,10.56c-9.63,1.35-19.13,3.73-28.78,4.8a370.26,370.26,0,0,0-36.74,5.94c-15.86,3.39-31.65,7.2-47.64,9.77-15.47,2.49-30.95,4.75-46.06,9-5.2,1.45-10.33,3.82-15.61,4.23-23.78,1.81-46.93,7.89-70.55,10.26-34.48,3.46-68.39,9.66-102.06,17.53a52.16,52.16,0,0,1-12.86,1.45c-19-.41-37.72,2.91-56.49,5.1-23.62,2.75-47.09,6.62-70.68,9.59-10.73,1.35-21.59,1.6-32.38,2.52-22.66,1.93-45.31,4-68,6-17.77,1.5-35.59,2.49-53.33,4.28-25.85,2.61-51.72,4.6-77.68,5.4-19.45.59-39,.33-58.22,3.33-25.27,3.94-50.73,3.61-76.09,5-42.13,2.27-84.4,2.17-126.51,4.69-50.24,3-100.65,1.53-150.78,6.51a49.65,49.65,0,0,1-9.75.1c-10.83-1.06-21.62-.18-32.43.29-22.13,1-44.28,2.59-66.4,2.24-30.82-.48-61.65-2-92.4-4.1-17.82-1.2-35.59-2.79-53.45-3.22-41.1-1-82.17-3-123.3-2-9.73.24-19.57.36-29.2-.81-30.8-3.73-61.68-1.68-92.49-1.35-28.7.3-57.37.46-85.91-2.29-27-2.6-54.09-2.35-81.1-2.85-15.09-.28-30.23.23-45.38-.46-36.25-1.66-72.25-6.21-108.36-9.39-25.88-2.27-51.67-5.54-77.5-8.34-28.48-3.1-57-6.25-85.46-9.21-13.45-1.4-26.92-3.13-40.41-3.46-35.24-.85-70.24-4.82-105.3-7.73-40.47-3.37-80.86-7.59-121.45-9.49a88.21,88.21,0,0,1-12.91-1.27c-21.23-4.18-42.66-6.94-64.08-9.85-17.69-2.41-35.24-5.77-52.86-8.66-19.22-3.16-38.62-5.44-57.62-9.62s-38.85-4-57.06-11.93c-2.4-1-5.34-.74-8-1.2-37.9-6.54-75.83-12.87-113.66-19.77-12.23-2.23-24.3-5.33-36.67-7-19.84-2.72-39.7-5.34-59.14-10.46-39.74-10.47-80-18.86-118.87-32.64-15.3-5.43-31.49-7.65-46.84-13.13C240.9,698.32,214,690,188.22,678.64c-7.85-3.46-8.59-2.81-15.26,6.48,3.15,5.16,9.11,5.48,13.88,7.56a373.07,373.07,0,0,0,44.34,15.53c4.8,1.41,5.69,4.18,3.92,8.84s-4.41,5.94-8.75,4.3c-8.1-3.05-16.35-5.78-24.17-9.44-6.8-3.19-12.28-3.59-16.85,3.3a64.78,64.78,0,0,1-4.94,5.92c1.72,2.92,4.09,4,6.66,5.09,4.5,1.85,8.88,4,13.22,6.21.73.37,1.64,2.06,1.44,2.31a9.53,9.53,0,0,1-3.47,3c-2.77,1.13-5.32-.43-7.77-1.45-5-2.09-9.79-4.61-14.81-6.6-2.94-1.17-7.76,1.53-8.85,5.26-1.18,4.06,2.61,3.58,4.94,4.34,3.6,1.18,7.69,1.72,10.63,3.84,4.11,3,7.39,4,11.22.09.07-.08,2,1.22,1.94,1.54a13.79,13.79,0,0,1-2,4.27c-4.35,6-10.37,10.77-13.48,18.37,7.1,2.71,13.88,5.12,17,12.31-2.59,5-8.68,7.8-9.18,14.2,5,2.38,11.32,3.35,13.21,6.78,3.08,5.58-4.2,8.9-6.75,13.32-2.84,4.93-3.27,4.87,2.26,9.76,1.47,1.29,1.85,2.42,1.46,4-.45,1.86-2.09,2.41-3.69,2.64a14.25,14.25,0,0,1-4.83,0c-6.88-1.48-9.89,2.59-12.2,8.51,5.95,5.77,14.16,7.35,21.36,10.8,3.45,1.65,6.18.22,8.18-3,2.28-3.68,4.72-7.27,7.17-10.85a26.2,26.2,0,0,1,3.08-3.73,2.9,2.9,0,0,1,4.21-.17,3.39,3.39,0,0,1,1,2.91C219.59,841.29,216.7,847.63,213.27,855.34ZM2988.69,815.1c14.56-1.69,29.85-2.29,44.61-5.42,32.3-6.85,65.1-10.95,97.23-18.74,17.84-4.33,36.2-6.45,54.28-9.81,10.08-1.88,20-4.74,30.12-6.32,60.45-9.42,120.26-21.7,178.66-40.13,42.79-13.5,86-25.89,125.42-48.35,3.72-2.13,8.07-3.15,11.94-5.06,13.49-6.67,28.5-9.82,41.46-17.64,34.23-20.66,69.19-40.09,100.72-65.07,13.14-10.41,25.95-21.11,38.6-32.08a64.45,64.45,0,0,0,21.4-37.2c2.53-12.74,4.73-25.55,6.87-38.36s-1-25.77-.21-38.67a7.79,7.79,0,0,0-.56-3.19c-5.54-14.05-8.93-28.89-16.91-42.05-15.19-25.06-32.22-48.66-52.84-69.55-4.19-4.24-8.83-8-13-12.25a373.85,373.85,0,0,0-59.31-47.83c-10.86-7.16-22.83-12.29-33.81-19-30.24-18.53-63.54-29.82-96.16-42.8-10-4-20.47-6.52-30.3-11.21-8.68-4.14-18.34-6.28-27.66-9-13.44-3.93-27.17-7-40.4-11.5-23-7.85-46.13-14.95-69.86-20.14-11.08-2.42-22.43-3.44-33.4-5.83-14.14-3.07-28-7.76-42.35-10-22.41-3.44-43.63-12.19-66.3-14.65a178.44,178.44,0,0,1-25.36-5.17c-30.84-8-62.49-12-93.53-19.08-3.15-.71-6.47-.6-9.68-1.1-19.12-3-38.35-5.47-57.34-9.21C2944.55,93.5,2918.2,88,2891.54,84c-23-3.4-46.13-6-68.92-10.31-21.27-4.07-42.78-5.69-64.15-8.6-9.65-1.31-19.41-2-28.95-3.86-21.14-4.07-42.39-7.27-63.69-10.4-9.68-1.43-19.57-.61-28.92-3-21.55-5.56-43.85-4.8-65.62-8.55-7.84-1.35-15.77-2.63-24.05-2.47-20.42.41-40.71-4.86-61.29-2.29-1.54.19-3.19-.62-4.8-.8-12.29-1.34-24.58-2.84-36.9-3.88a352.25,352.25,0,0,0-37.07-.89c-13.37.28-26.67-2.93-40.29-2.72-21.37.33-42.73-2.76-64.16-.16-4.19.51-8.58-.59-12.87-.95-2.67-.22-5.53-1.18-8-.53-13.28,3.57-26.67,2.45-40.18,2.27-26.53-.36-53-1-79.46-3.29-7.54-.66-15.16-.54-22.74-.56-29.77-.1-59.56.56-89.3-.33-35.67-1.07-71.29-2.78-107-1.35-49.16,2-98.33,3.55-147.5,5.26-7,.24-14.19-.46-21.11.54-25.22,3.67-50.7,3.92-76,4.54-30.83.76-61.57,2.77-92.33,4.46-35.67,1.95-71.32,4.4-107,6.68-17.3,1.11-34.73,1.32-51.84,3.77-20.92,3-41.81,5.73-62.91,7-10.26.61-20.48,2-30.69,3.24-15,1.8-29.63,6.23-44.94,4.92a23,23,0,0,0-4.86.44c-21.89,2.91-43.7,7-65.68,8.46-30.17,2-60.06,6.38-90.16,8.87-18.75,1.56-37.52,3.77-56.24,5.77-21.53,2.31-42.27,9.27-64,9.64-19,6.7-39.26,6.77-58.9,9.75-15.46,2.34-30.84,5.26-46.3,7.63s-30.74,6.24-46.25,8.28a253.78,253.78,0,0,0-31.69,5.7c-10.38,2.72-20.93,4.88-31.5,6.78-15.33,2.74-30.73,5-46.1,7.5-5.84,1-11.67,1.91-17.5,2.93-13.25,2.32-26.53,4.5-39.73,7.07-18.44,3.58-37,6.57-55.28,11-11.49,2.75-23.17,4.75-34.72,7.29-20,4.39-40.08,8.36-59.91,13.52-2.61.68-5.34.87-8,1.29-12.25,1.93-24.71,3-36.7,6-21.91,5.46-43.51,12.15-65.28,18.14-8.8,2.42-17.64,4.77-26.6,6.43-13.87,2.58-26.75,8.53-40.42,11.55-29.59,6.54-57.35,18.18-85.26,29.46-21.44,8.67-42.5,18.3-64.11,26.53-24.25,9.24-47,21.45-70.24,32.84-19.33,9.49-38.25,19.83-57.57,29.33-24,11.8-45.07,27.58-64,46.3-12.95,12.78-18.67,28.95-20.27,46.52-.65,7-.94,14.07-2.42,20.91-5,22.9.34,44.33,10.71,64.25,8.72,16.75,20.35,31.94,29.74,48.37a111.83,111.83,0,0,0,36.76,38.34c24,15.55,47.65,31.93,74.33,42.9,7,2.86,14.24,5.17,20.94,8.57,19.36,9.81,40.2,15.76,60.32,23.58,9.56,3.71,19.21,7.27,29,10.28,24.79,7.63,49.61,15.2,74.57,22.27q39,11,78.27,21c14.1,3.58,28.27,6.83,42.86,8.5a466.23,466.23,0,0,1,58.91,10.17c33.64,8.34,68,12.9,102.08,18.82,12.24,2.12,25,2.48,36.68,6.3,18.81,6.17,38.12,7.52,57.44,9.6,6.33.68,13.07-.53,18.07,5.3,1.12,1.31,4,1.25,6.15,1.53,27.39,3.57,54.79,7,82.18,10.66,10.19,1.35,20.47,2.45,30.46,4.73,18.06,4.13,36.37,5.9,54.74,7.38,26.47,2.13,52.93,4.19,79.4,6.34,42.12,3.42,84.21,7.25,126.36,10.1,11.34.77,22.62,2.31,33.93,2.75,20.09.78,39.91,3.76,59.84,5.91,21.53,2.33,43,5.82,64.58,7.08,36.8,2.14,73.34,7.16,110.11,9.27,28.09,1.61,56.09,4.41,84.38,3.57,25.42-.76,50.94.61,76.37,2,21.07,1.12,42.08,2.89,63.23,2.35,38.47-1,76.88,1.16,115.3,2.78,16.24.68,32.51,2.71,48.7,2.17,26.48-.87,52.87-1,79.36.36,13.89.71,27.84-1.12,42,0,30.22,2.48,60.65,2.56,90.85,5.19,34.68,3,69.13.08,103.63-1.68,15.61-.79,31.16-2.61,46.83-2.91,18.41-.36,36.81-1.43,55.21-1.95,13-.37,26,0,39-.57q64.14-2.76,128.31-3.59c41.68-.57,83.38-1.42,124.87-6.27,8.6-1,17.25-1.88,25.9-2.3,30.3-1.47,60.62-2.55,90.84-5.37,38.32-3.58,76.65-7.1,115-10.09,31.33-2.45,62.68-4.62,93.86-8.68,15.58-2,31.09-4.79,46.72-6,14.63-1.14,29-4.42,43.47-5.31,15.22-.93,29.88-4.18,44.81-6.22C2966.86,817.63,2977,812.36,2988.69,815.1ZM36.45,564.54c0,5.63-.15,7.23,0,8.79a177.24,177.24,0,0,0,8.15,37.5c1.69,5,6.22,5.93,10,2.41,3.07-2.9,6.27-5.74,7.66-10.7ZM3621.15,661c1.12.19,1.76.53,2.15.34,15.54-7.42,29.46-17.26,42.49-28.42.16-.14-.16-1.07-.46-1.48a6.64,6.64,0,0,0-2.11-2.25,3.72,3.72,0,0,0-3,0q-20.64,12.56-41.15,25.32c-1.34.83-2.37,2.5-1.18,4.05A12.9,12.9,0,0,0,3621.15,661ZM181.43,752c-6.87-2.33-13.8-4.89-20.88-7-3.59-1.08-13.35,5.63-13.11,9.19.26,3.9,4.32,4.05,7.23,5.11,4,1.46,8,2.9,12,4.37,3.36,1.23,6.3.71,8.59-2.13S180.83,756.75,181.43,752Zm-28.1-42.28c4.95,2.39,10.24,5,15.58,7.48,1.39.65,2.7,1.46,4.52.66,3.66-1.61,11.17-9.59,10.23-11.4-2-3.91-6.51-3.29-9.77-4.95-2.39-1.21-5.18-1.64-7.57-2.87-2.85-1.46-5.33-1.15-7.25,1.12C156.77,702.44,153.05,704.35,153.33,709.69ZM123.64,728c-4.51-2.63-9-5.29-13.53-7.88a5.81,5.81,0,0,0-7.4.9c-2.58,2.61-5.73,5-6.48,9.71,1.91,1.3,4,2.88,6.17,4.17C114.39,741.85,114.6,741.76,123.64,728Zm29.93-32.76c-.46-.9-.7-2.29-1.41-2.61-4.92-2.17-9.88-4.31-14.95-6.08-3.21-1.11-11.39,5.64-11.41,9.26a3.47,3.47,0,0,0,1.54,2.64c3.86,1.91,7.81,3.67,11.81,5.27C144.74,706,152.64,701.25,153.57,695.24Zm-38,91.18c5.42,6.8,13.5,8.33,20.76,11.18,2.86,1.12,10.83-5,10.58-8.07-.23-2.9-3-4-5.49-5.12-3.88-1.73-7.72-3.58-11.51-5.5-3.31-1.67-6.13-1.08-8.63,1.52C119.4,782.34,117.59,784.27,115.53,786.42Zm56.75-112.73c-.17-.46-.22-1.21-.53-1.35-6.35-2.74-12.58-5.89-19.16-7.89-3.5-1.06-5.4,2.79-7.09,5.46-2.08,3.29.51,4.79,2.82,6,3.28,1.76,6.67,3.33,10.08,4.85,6.52,2.9,8.69,2.2,13.06-4.17A9.59,9.59,0,0,0,172.28,673.69ZM67.73,607.8a42.92,42.92,0,0,0-11.59,14.62A48.21,48.21,0,0,1,61.65,626c7.91,6.68,8.39,6.67,14.69-1.4,3.6-4.61,3.55-6.77-.74-10.72C73.28,611.71,70.59,610,67.73,607.8ZM148.5,740.22c-2.33-1.32-4.15-2.47-6.07-3.41-11-5.34-11-5.34-19.57,4.49-.55.63-.37,1.91-.54,2.92,3.4,3.81,8.61,4.26,12.74,6.76,2.08,1.25,4.2.48,5.82-1.15C143.49,747.21,147.26,745.58,148.5,740.22Zm-23.42-58.87c-4-2.4-8.13-4.83-12.23-7.25a5.45,5.45,0,0,0-7.19,1.08c-7.41,7.85-9.48,8.18,2,14.06,2.78,1.43,5.72,2.56,8.47,3.77C120.08,689.62,124,686.84,125.08,681.35Zm3563.64.34c-4.89-5.56-10-6.85-16-3.22-3.6,2.19-7.34,4.17-10.89,6.44-2.5,1.59-2,4,.75,6.09,4.16,3.26,8,4.57,12.79.82C3679.49,688.61,3684.93,687.21,3688.72,681.69ZM132.17,770.16c6.53,5,14.36,7.19,21.79,10.13,2.33.93,7.7-2.65,8.66-5.95,1-3.47-2.09-4.41-4.49-5.44-3.48-1.49-7-2.87-10.52-4.27C139.22,761.27,139.22,761.27,132.17,770.16ZM100.88,669.39c-2.85-3.93-7.42-5.63-11.57-7.78a5.17,5.17,0,0,0-4.55.16c-3,2.27-5.86,5.07-6.06,9-.16,3.2,3.41,3.67,5.4,5.24,1.25,1,2.83,1.55,4.18,2.43,2.71,1.76,5,1.18,7-1.1S100.19,673,100.88,669.39Zm20.65-22c-1.52-1.35-1.91-1.72-2.33-2.06-13.78-11.22-14.56-9.87-22.59,4,3.34,3.72,8.09,5.1,12.36,7.24,2.78,1.39,5.18.64,7-1.79C117.63,652.63,119.18,650.51,121.53,647.37Zm10,157.39c-7.08-3.61-13.19-6.79-19.37-9.82-.83-.41-2.6-.46-2.93,0-.81,1.18-1.64,2.89-1.38,4.16a44,44,0,0,0,2.73,7.51c2.05,5.08,6.55,7.17,11.34,7.76,4.29.53,6.1-3.6,8.21-6.62A31.56,31.56,0,0,0,131.55,804.76Zm32.9-80.21c-3-3.36-7.27-4.27-11.15-5.93-7.51-3.21-7.57-3.22-13.14,3.06-.81.91-2.87,1.89-.45,4.5,2.39,1.35,5.52,3.41,8.88,5C156.65,734.84,158.16,734.13,164.45,724.55Zm-48.08,48.3A75.51,75.51,0,0,0,96.52,762c-1.88,4.32.15,7.1,1,10,1.32,4.52,2,10,7.7,10.91,5,.8,6.81-4.11,9.64-7C115.56,775.27,115.79,774.1,116.37,772.85Zm54.24,25.89c-2.08-1.22-4.23-2.71-6.57-3.82-8.14-3.85-8.18-3.8-14.73,2.66-1.45,1.44-3,2.88-1.92,5.51,3,1.74,6.25,3.52,9.4,5.43,2.58,1.56,5,1.56,7.1-.67C166.39,805.21,169.85,803.3,170.61,798.74Zm-88-94.15c-1.5,2.45-2.26,4.36-3.58,5.7-2.74,2.78-2.86,5.42-.65,8.54,5.22,7.38,8.62,7.6,14.92.65a59.74,59.74,0,0,0,3.74-5.09C93.74,709.28,88.28,708,82.63,704.59Zm2.52-5.9c5.08,2.79,9.67,5.59,14.5,7.88,3.35,1.59,7.09-.53,9-4.76,1.62-3.52-1.06-4.63-3.55-5.86-2.91-1.44-5.76-3-8.6-4.6s-5.21-.5-7.14,1.65C88,694.59,86.82,696.42,85.15,698.69Zm26.37,12.56c4.68,6.12,11.85,7.39,17.56,10.75,3.92-2.71,7.48-5.08,8.17-10.44L123,704.44c-2.89-1.45-5.18-.33-7.15,1.77C114.37,707.77,113.05,709.46,111.52,711.25Zm7.61-51.91c1.13,1.49,1.59,2.64,2.45,3.13q4.88,2.79,10,5.19c4.69,2.23,7.08,1.3,10.17-3.95,2.5-4.25-.91-5.49-3.74-7s-5.54-3.33-8.47-4.65c-2.1-.95-4.11-.29-5.63,1.65S120.64,657.56,119.13,659.34ZM90.94,736.1c-1.08.92-2.69,1.67-3.32,2.92-2,3.93-.17,7.82,2.32,10.34,2.86,2.89,6.8,5.82,11.26,4.71,2.28-.57,4.06-3.3,6-5.17,1.48-1.45.75-3.09-.49-4A55.61,55.61,0,0,0,90.94,736.1Zm100.9,72.45c-13-7.64-13.07-7.64-18.8-.13-3.66,4.79-2.74,7,3.12,8.88,5.16,1.7,9.41,1.5,12.45-3.61C189.64,812,190.76,810.27,191.84,808.55ZM3671,659.32c5.07,4.86,6.23,5.74,7.9,5,6.35-2.9,12.41-6.34,17.08-11.64,1-1.16.44-3.06-1.28-4-2.51-1.32-5.08-1.74-7.59-.09C3681.71,652.13,3676.39,655.7,3671,659.32ZM189.15,779.17c-4.78-1.53-9.26-3.2-13.87-4.35-3.28-.82-10.55,4.54-10.88,7.79a3.23,3.23,0,0,0,1.42,2.55c2.75,1.52,5.75,2.61,8.5,4.16,3.24,1.83,6.06,1.62,8.53-1.16C184.93,785.83,188.09,784.38,189.15,779.17ZM3701.6,691.85c.27-3.69-2.81-6-5.29-4.55-5.59,3.21-11.11,6.56-16.57,10-2.37,1.5-1.76,4.45,1.22,6.38,1.28.83,2.5,2.34,4.27,1.25,5-3.07,10.07-6.1,14.88-9.47C3701.18,694.7,3701.31,692.61,3701.6,691.85ZM130.81,819.43c4.06,1.93,8.29,4.13,12.67,5.94,3.19,1.31,8.78-2.08,9.83-6.06.89-3.4-2.14-4.3-4.45-5.46s-4.73-2.41-7.13-3.53c-2.84-1.33-5.15-.16-7.09,1.86S130.78,815.93,130.81,819.43ZM3648.35,683a4.56,4.56,0,0,0,1.66,0c6.33-3,12.51-6.21,17.77-10.87a2.47,2.47,0,0,0-.11-4.07c-2.17-1.53-4.73-4.1-7.09-2.86A88.92,88.92,0,0,0,3646,675c-.9.73,0,3.89.38,5.86C3646.59,681.65,3647.68,682.26,3648.35,683ZM88,625.54c-1,.34-2.27.4-2.9,1.06-2.21,2.3-4.2,4.82-6.29,7.25-1.42,1.66-2.59,3.39-1.08,5.59,1.9,2.75,8.11,6,9.54,4.68,3.48-3.27,6.59-6.94,9.8-10.51.16-.18-.13-.89-.35-1.28C94.81,628.81,90.83,627.91,88,625.54ZM3676.92,711c-4.77-4.73-7.63-8.71-13.42-5.07-3.17,2-6.64,3.53-9.72,5.65-2,1.37-2.21,3.27.12,5,3.2,2.34,6.38,4.08,10.34,1.75C3668,716.17,3671.69,714.05,3676.92,711ZM130.48,758.91c-.4-.93-.54-2.32-1.24-2.72-3.25-1.85-6.62-3.52-10-5.09s-7.9.82-9.66,5.52c-1.35,3.6,1.85,4.36,4.15,5.49a64.73,64.73,0,0,0,7.29,3.35C124.31,766.59,130.36,762.27,130.48,758.91ZM3706.54,658.16c-6.86,3.17-12.7,6.42-17.86,11.08,10.25,8.31,14.79,7.56,17.87-2.52C3707.31,664.24,3708.31,661.63,3706.54,658.16Zm-3509,200.45c-.57-1-.86-2.3-1.61-2.66q-10.8-5.15-21.73-10a2.68,2.68,0,0,0-3.79,1.58,3,3,0,0,0,.76,2.72c6.22,4.13,12.49,8.2,18.9,12a5.52,5.52,0,0,0,4.57,0C195.87,861.63,196.57,859.85,197.49,858.61ZM3679,741.8c-6.16-.08-10.55,3.12-15,6.15-.51.35-.59,2.06-.21,2.82,1.27,2.57,6.17,5,8.19,3.87,3.3-1.8,6.4-4,9.54-6a2.91,2.91,0,0,0,.89-4.2C3681.66,743.2,3680.06,742.55,3679,741.8Zm1.08-101c-.55-.79-1-2-1.7-2.26-1.45-.53-3.6-1.28-4.57-.63-5.73,3.88-11.24,8.08-16.72,12.31-.69.54-1.25,2.59-1,2.75,1.19.85,2.89,2.12,4,1.8a43.31,43.31,0,0,0,19.8-12.44C3680.17,642.06,3680,641.35,3680.09,640.83ZM175.32,828.11c-2.61-2.75-6-4-9.59-5.12s-6.11.6-8.16,3.23c-.88,1.12-2.32,2.28-.72,4a17.33,17.33,0,0,0,11.25,5.16C171.64,835.71,174.1,832,175.32,828.11Zm-97-133.88c3.52-.68,5.65-3.22,6.88-6,1.37-3.14-1.61-4.47-3.8-5.87l-5.34-3.4c-2-1.23-4.11-1.67-5.49.5-1.62,2.57-4.42,4.66-4,8.22a2,2,0,0,0,.6,1.31C70.58,691.36,73.91,694,78.32,694.23ZM3632.64,666c2.11,2.29,3.65,5.3,6.66,4.06a40.81,40.81,0,0,0,14.24-9.88,2.7,2.7,0,0,0-.22-2.59c-1-1.08-2.75-2.8-3.45-2.51C3643.63,657.75,3637.69,661,3632.64,666ZM66.3,665.29c3.57.22,9.9-6,9.43-9.31a2,2,0,0,0-.61-1.29c-2.24-1.43-4.39-3.23-6.86-4-3.07-1-8.11,3.36-9.22,7.4C58.31,660.72,62.68,665.07,66.3,665.29Zm3619.14-54.84c9,4.58,9,4.58,18.57-6.57-3.38-2.59-6.46-5.56-10.45-.42C3691.46,606.16,3688.3,608.05,3685.44,610.45Zm.29,106.24c-4.87,2.82-9.82,5.46-14.43,8.61-.83.56.12,3.21,1.9,3.72,4.56,1.31,13.91-3.22,15.83-7.91C3689.32,720.41,3687.33,718.76,3685.73,716.69ZM3721,582.06c-4.67,4-8.58,7.32-12.52,10.64-1.83,1.55-.67,2.95.51,3.78s3.48,1.93,4.21,1.41C3718,594.46,3722,590.33,3721,582.06Zm-54.33,40.74c2,3.19,4.62,5.63,6.9,4.64,3.7-1.61,7.76-3.65,9.34-8,.24-.65-.66-2.21-1.43-2.66-4.9-2.82-7.72,1.63-11.26,3.48A28.84,28.84,0,0,0,3666.68,622.8Zm19.4,13.16c4.69.33,11.18-3.49,12.14-7.54.41-1.71-1.17-2.74-2.87-3-5.5-.87-8.6,3-11.93,6.26a2.79,2.79,0,0,0,.07,2.63C3684,635.07,3685.18,635.43,3686.08,636Zm25.6,1.29c-.44-.93-.65-2.22-1.39-2.68a3.26,3.26,0,0,0-2.9.11,44.53,44.53,0,0,0-6.34,4.74c-1.07,1-2.44,2.54-1,4a7.25,7.25,0,0,0,4.18,2C3708.82,645.81,3711.27,643,3711.68,637.25Zm-3561.84,200c3.87,2.68,7,5,10.71,6.49a3.1,3.1,0,0,0,2.64-.72,1.45,1.45,0,0,0-.4-2.54C159,839,155.87,835.34,149.84,837.21ZM3706.67,621.6c4.82-.91,7.44-4.89,9.88-8.93.32-.54-.33-2.12-1-2.63a3.14,3.14,0,0,0-2.84-.39c-3.64,2.2-7,4.76-9,8.73-.63,1.26-.33,2.12,1,2.59C3705.23,621.14,3705.72,621.29,3706.67,621.6Zm-45.89,150.09c.53.77,1,2.18,1.59,2.22,4.08.26,6.91-2.06,9.18-5.12a1.6,1.6,0,0,0-.69-2.64C3667.63,765.07,3662.29,768.06,3660.78,771.69ZM3697,709.16l-3.18,2.55,3.08,3.24a26.74,26.74,0,0,0,2.41-4.11C3699.72,709.67,3698.89,709,3697,709.16Zm-6.09,27.16c-.56-1.31-1.44-1.56-2.44-.55a17.82,17.82,0,0,0-1.63,2.26c1,.27,2,.85,2.93.72C3690.94,738.59,3691.29,737.52,3690.86,736.32Zm-9.55,25.36c2.28-.25,3.54-1.37,3.08-3.8-.08-.44-.53-.82-.8-1.23l-4.28,3.59Z"/><path class="cls-1" d="M1204.9,884.62c-36-3.7-72-8.4-108.05-10.76-27.6-1.8-54.67-6.82-82-10.12a26.27,26.27,0,0,1-6.18-1.54c-.55-.21-.73-1.7-.84-2.63a2,2,0,0,1,.72-1.41c2.2-2,5-2,7.63-1.78,9.14.89,18.38,1.35,27.36,3.1,15.44,3,31.09,3.89,46.66,5.31,36,3.31,72.15,6.09,108.24,8.91,6.44.5,13,0,19.43.24a26.36,26.36,0,0,1,7.88,1.2c1,.38,2,2.54,2,3.89s-1,3.39-2.06,3.87C1219,885.86,1212,884.78,1204.9,884.62Z"/><path class="cls-1" d="M2644.83,885.31c7.43,0,16.09,0,24.75,0,2.16,0,4.52.26,4.64,3.15.12,2.63-2,3.63-4.06,4.23a55.24,55.24,0,0,1-7.91,1.72,59.46,59.46,0,0,1-8.12.43c-49.4-.28-98.33,7.33-147.63,8.63q-21.93.57-43.86,1a11.73,11.73,0,0,1-4.66-1c-.82-.34-1.37-1.46-1.92-2.32-.73-1.14-.24-1.87,1.3-2.07,2.14-.26,4.28-.7,6.42-.75,50.41-1.27,100.5-6.8,150.67-11.24C2624.16,886.28,2634,888.19,2644.83,885.31Z"/><path class="cls-1" d="M1024,885.06c7.75-3.65,15.15-3,22.46-2.2,33.33,3.53,66.61,7.54,100,10.86,17.75,1.76,35.6,2.41,53.4,3.72a104.7,104.7,0,0,1,14.41,2.1,4.56,4.56,0,0,1,2.62,3.59c-.07,1.15-1.93,3-3.16,3.1a69.48,69.48,0,0,1-12.89.45c-34-2.44-67.9-4.76-101.55-10.45-19.15-3.24-38.54-5.08-57.8-7.74C1035.54,887.68,1029.76,886.22,1024,885.06Z"/><path class="cls-1" d="M2549.1,1054.66c-25,.63-45,1.16-65,1.61a2.62,2.62,0,0,1-2.89-2.87c.06-.63,1.59-1.52,2.52-1.61,11.82-1.09,23.64-2.45,35.5-3,32.38-1.5,64.79-2.3,97.15-4.08,14.53-.79,29-3.13,43.45-5,7-.9,13.9-2.07,20.9-.68.65.13,1.43,1.49,1.47,2.3s-.51,2.51-1.13,2.69a60.36,60.36,0,0,1-9.4,2C2629.28,1051.45,2586.85,1055.86,2549.1,1054.66Z"/><path class="cls-1" d="M1023.49,953c11.1.67,22.28.69,33.28,2.12,38.06,5,76.36,7.16,114.54,10.75,6.44.61,13,.44,19.45.67,4.86.18,9.74.21,14.57.68s8.92,3.83,7.79,6.15c-1.82,3.77-5.44,2.8-8.49,2.84-17.88.18-35.63-1.79-53.33-3.88-40.74-4.8-81.44-9.94-122.15-15-2.07-.25-4.1-.79-6.15-1.2C1023.16,955.11,1023.32,954.06,1023.49,953Z"/><path class="cls-1" d="M1199.83,1004q-60-4.41-119.31-13.31c-8.56-1.27-17.16-2.2-25.74-3.27-3.76-.47-7.65-1.71-11.26-1.15-5.49.85-3.35-6.37-7.56-6.19a14.45,14.45,0,0,0-3,.61,3.53,3.53,0,0,0,.22,1.19,2.66,2.66,0,0,0,.88,1.22,3,3,0,0,0,1.58.28c26.58-.77,52.86,3.47,79.29,4.75,29.7,1.43,59.22,5.68,89,5.15,6.39-.11,12.83,1.61,19.22,2.61a3.13,3.13,0,0,1,3,3.12c0,2.53-1.81,3.76-3.68,4.88a3.49,3.49,0,0,1-1.6.11Z"/><path class="cls-1" d="M2470,918.43c6.18,0,12.36.08,18.53,0,41.73-.66,83.31-4.19,124.89-7.35,11.32-.85,22.52-3.05,33.8-4.43,7-.85,14-1.44,21-1.89,3.21-.21,6.08,2.6,5.49,4.58-.84,2.81-3.21,2.32-5.13,2.63-53.67,8.43-107.8,10-162,10.75C2494.38,922.87,2482.1,922.25,2470,918.43Z"/><path class="cls-1" d="M3565.75,824.67l9.14-2.18c2.28,3.39-.51,4-2.26,4.69-23.37,9.76-46.85,19.24-70.12,29.22-15.37,6.6-31.13,12-49,17.64,3.69-6,8.73-6.4,12.56-7.73q34.38-11.84,67.73-26.27a87.94,87.94,0,0,0,10-5.28c.56-.33.67-2,.49-2.88-.31-1.53-1.21-3.24-3-2.79a102.13,102.13,0,0,0-10.79,3.38c-10,3.63-20,7.36-30.67,9.16,10.68-4.75,21.37-9.47,32-14.27q23.67-10.65,47.29-21.4c3.93-1.78,7.83-3.66,11.85-5.23a2.7,2.7,0,0,1,3.77,1.72,3.18,3.18,0,0,1-1.14,2.71,41.25,41.25,0,0,1-5.67,3Q3574,814.71,3560,821.25c-2,.58-4,1.06-5.87,1.77s-4,2-3.14,4.46a3.71,3.71,0,0,0,5.09,2.28C3559.43,828.35,3562.54,826.4,3565.75,824.67Z"/><path class="cls-1" d="M1036.91,1006.66c7.27,0,14.58-.53,21.79.11,16.69,1.48,33.35,3.34,50,5.39,32.24,4,64.59,6.37,97,7.85,7,.31,14,1.41,20.9,2.32.82.11,2.25,1.67,2.11,2-.59,1.34-1.48,3.23-2.61,3.51a23.89,23.89,0,0,1-8,.52c-26.92-2.51-54.06-2.3-80.88-6.18-19.26-2.79-38.55-5.37-57.82-8.1-14.23-2-28.45-4.14-42.68-6.21Z"/><path class="cls-1" d="M1022,929c11.82,3,23.87,1.54,35.67,2.91,15.6,1.82,31.25,3.21,46.8,5.38,31.2,4.37,62.71,3.91,94,6.51,5.15.43,11.8-2.15,15.4,4.46-4.43,5-10.21,2.45-15.3,2.37-34.72-.53-69.26-3-103.53-9.13-17.57-3.14-35.38-5-53.13-7.06C1034.94,933.66,1028.27,932.22,1022,929Z"/><path class="cls-1" d="M1037.64,910.72c16.23-3.58,31.62.64,47.23,1.86,38.31,3,76.52,7.32,115,8.86a83.56,83.56,0,0,1,11.31.87,9.29,9.29,0,0,1,6.61,4.3c.89,1.53-3.77,4-7.86,3.67-25.9-2-51.9-2.81-77.64-6.71-9.62-1.46-19.33-2.25-29-3.58C1081.38,917,1059.52,913.82,1037.64,910.72Z"/><path class="cls-1" d="M1019.38,1024.72c9.42,3,19.31,1.93,28.92,2.59,33.48,2.28,66.49,8.22,99.78,11.82,11.82,1.28,23.72,1.81,35.59,2.59,16.73,1.09,33.47,2.07,50.19,3.17a26.23,26.23,0,0,1,6.37,1.09c1.42.45,3.15,1.39,2.44,3.43a3,3,0,0,1-2.08,1.61,36.69,36.69,0,0,1-6.46.1c-29.12-2.11-58.28-3.81-87.34-6.58-16.65-1.59-33.13-4.94-49.7-7.46-24-3.67-48-7.29-72.32-8.91-2.26-.15-4.2-.67-4.93-3.16Z"/><path class="cls-1" d="M2548.84,1000.87c-10.27.42-20.54.88-30.81,1.22-4.33.15-8.66,0-13,0a3.53,3.53,0,0,1-3.69-2.43c-.74-2.4,1.38-2.59,2.77-2.71,15.1-1.31,30.18-2.94,45.31-3.65,21.11-1,42.08-3.11,63-6,7.48-1,15-2,22.57-.86,1.78.28,2.43,2,2.31,3.69-.07.87-.82,2.28-1.47,2.41-6.86,1.38-13.74,2.68-20.66,3.73C2593.19,999.63,2571,1000.1,2548.84,1000.87Z"/><path class="cls-1" d="M2490.88,947.05c10.72-.91,21.41-2.2,32.14-2.66,36.25-1.54,72.19-5.84,108-11.28,1.6-.25,3.18-.64,4.78-.84,7.23-.88,14.1,1.05,12.79,3.29-2.59,4.45-7.37,3.58-11.6,4.17-43.37,6.15-86.92,10.16-130.74,10.77-5.21.07-10.42-.25-15.62-.39C2490.73,949.09,2490.8,948.07,2490.88,947.05Z"/><path class="cls-1" d="M2552.55,1024.91c-13,0-26,.06-39,0-3.25,0-6.5-.58-9.2-2.66-.33-.25-.36-1-.34-1.55,0-.37.26-1,.53-1.06a10,10,0,0,1,3.12-.62c39.06,1.15,77.86-2.05,116.57-6.91a29.13,29.13,0,0,1,8.06-.26c1.12.18,2.57,2.18,2.73,3.49a4.67,4.67,0,0,1-1.93,3.88,21.49,21.49,0,0,1-7.69,2.24C2601.17,1023.31,2577,1026.68,2552.55,1024.91Z"/><path class="cls-1" d="M2257.19,912.3c6.42-1.32,12.58-.9,18.69-.94,26-.15,51.93,0,77.88-.54,19.44-.41,38.87-1.8,58.31-2.62,6.8-.28,11.77,1.89,10.47,4.09-2.46,4.18-6.71,2.61-10.21,2.71q-52.66,1.43-105.35,2.54c-5.95.13-11.92.12-17.84-.31-10.24-.73-20.46-1.82-30.68-2.82C2258.18,914.38,2258,913.63,2257.19,912.3Z"/><path class="cls-1" d="M2505.32,978.61c3-3.19,6.43-4.29,10.14-4.74,19.88-2.39,39.73-4.93,59.64-7,16.15-1.71,32.32-3.2,48.29-6.35a117.68,117.68,0,0,1,14.42-1.53c.54,0,1.28,1.36,1.74,2.2.17.31-.12,1-.36,1.41-1.42,2.56-3.78,3.49-6.53,4.23-13.13,3.54-26.62,5-40,6.14-27.51,2.39-55.08,4-82.63,6A40.55,40.55,0,0,1,2505.32,978.61Z"/><path class="cls-1" d="M1264.51,1045.38c3-.51,4.12-1,5.13-.82a836.71,836.71,0,0,0,114.93,7.5,5.48,5.48,0,0,1,3,.84,3.66,3.66,0,0,1,1.58,2.54,3.38,3.38,0,0,1-1.74,2.4,13.49,13.49,0,0,1-4.64,1.21,79.74,79.74,0,0,1-11.34.41c-29.69-2.08-59.45-3.3-88.94-7.67C1276.74,1050.93,1271,1050.26,1264.51,1045.38Z"/><path class="cls-1" d="M2317.31,934.78c26.6-1.26,51.94-2.36,77.26-3.72,11.3-.6,22.58-1.8,33.88-2.56a18.4,18.4,0,0,1,6.26.93,3.27,3.27,0,0,1,1.76,2.39,3.52,3.52,0,0,1-1.32,2.56,6.92,6.92,0,0,1-6,1.68c-9.15-2-18.21-.41-27.37.36-27.46,2.31-55,1.75-82.51,1C2319,937.39,2318.69,936.63,2317.31,934.78Z"/><path class="cls-1" d="M833.15,1003.12c4.67,0,9.31-.46,13.84.08,18.23,2.16,36.42,4.61,54.62,7q34.51,4.51,69,9.15a18.75,18.75,0,0,1,4.48,1.5c.35.14.52.8.71,1.25.57,1.41.15,2.33-1.17,2.21-8-.76-16.11-1.39-24.11-2.46-13.37-1.78-26.64-4.39-40-5.69-25.81-2.5-51.28-7.1-76.86-11.1C833.44,1005,833.38,1004.07,833.15,1003.12Z"/><path class="cls-1" d="M2707.73,1036.94c9.76-.58,19.07-3.74,28.66-5,15.49-2.11,31-4.29,46.51-6.23,14-1.74,27-7.86,41.16-8.61,3.75-.2,7.49-.49,11.24-.78,1.52-.12,2.19.48,1.78,1.87a6,6,0,0,1-1.31,2.7,5.33,5.33,0,0,1-2.9,1.25c-24.16,2.47-47.49,10.28-72.07,10.55-11.23.13-22.44,2.81-33.64,4.46C2720.72,1038.05,2714.3,1038.65,2707.73,1036.94Z"/><path class="cls-1" d="M2344.18,954.19c6.83-.42,13.67-1.25,20.5-1.19,24.81.22,49.55-1.38,74.29-2.9a45.36,45.36,0,0,1,7.94.67c.19,0,.36,1,.37,1.5a2,2,0,0,1-.37,1.32c-2,2.21-4.64,2.47-7.37,2.55-18.86.57-37.72,1.39-56.58,1.63-12.89.17-25.79-.46-38.69-.73Z"/><path class="cls-1" d="M989.68,985.91l-89-9.12a79.91,79.91,0,0,1-21.79-5.61c-.76-.3-1.28-1.62-1.49-2.56-.07-.29,1.41-1.41,2-1.27,24.7,6.3,50,8.07,75.24,10.78,8,.87,16.14,1.38,24.19,2.2C981.83,980.64,985.22,980.32,989.68,985.91Z"/><path class="cls-1" d="M270.35,878.37a36.54,36.54,0,0,1,5.6,1.75c20.55,9.8,42.1,16.55,64.23,21.75,6.19,1.46,12.81,2.5,17.59,7.42a3.25,3.25,0,0,1,.33,2.92c-.36.77-1.55,1.24-2.45,1.66a2.39,2.39,0,0,1-1.6,0c-26.34-9.47-54.3-14.41-79.11-28.17a54,54,0,0,1-6.45-4.55c-.24-.19-.15-1.12.08-1.55S269.38,879,270.35,878.37Z"/><path class="cls-1" d="M874,951.76c35.32.34,70.53,6.27,106.32,6.06-1.73,5.47-6.14,4.38-9.52,4.23-16.75-.74-33.55-1.19-50.2-3C905.12,957.37,889.45,956.71,874,951.76Z"/><path class="cls-1" d="M2673.78,980.62c8.5-1.24,14.26-2.47,20.07-2.86,19.37-1.3,38.55-4,57.67-7.2a48.6,48.6,0,0,1,6.4-.22c1.49-.05,2.14.65,1.67,2a4.7,4.7,0,0,1-4.31,3.85c-25,4.07-50,7.82-75.45,7.25C2678.91,983.44,2678,982.65,2673.78,980.62Z"/><path class="cls-1" d="M257.89,758.33c1.7-2.27.89-4.08-1.45-4.85-8.69-2.9-17.42-5.69-26.22-8.27-2.72-.79-4.84-2.15-8.21-5.46,27,6.69,52.2,12.94,77.42,19.27,1.44.36,3.25,1.23,2.06,3.28a3.61,3.61,0,0,1-2.61,1.16c-1,.07-2.11-.49-3.18-.59-11.37-1.08-22.12-4.94-33.16-7.49-2.48-.58-4.11.31-4.86,2.75Z"/><path class="cls-1" d="M239.29,730c24.24,6,48.31,11.93,72.38,17.93a12.67,12.67,0,0,1,4.32,1.93c.51.37.36,1.81.26,2.74a1.67,1.67,0,0,1-1.1,1.08,7.14,7.14,0,0,1-3,.24c-22.65-5.25-45.34-10.37-67.28-18.23C242.22,734.72,239.75,733.74,239.29,730Z"/><path class="cls-1" d="M3583.52,785.92c5.39.36,9.28-5.89,15.17-3.54a7.08,7.08,0,0,1-3.52,5.1c-23.82,12.5-49,21.45-75,28.72,13.68-6.19,27.48-12.14,41-18.66,7.6-3.67,16.29-5.43,22.36-12Z"/><path class="cls-1" d="M257.68,758.13c-.15,1.44-.85,2.92,1.48,3.53,7.28,1.9,14.51,4,21.77,6a31.1,31.1,0,0,1,4.68,1.17,2.8,2.8,0,0,1,1.27,2.36A3.24,3.24,0,0,1,285,773.3c-.92.25-2.07-.35-3.13-.57a557.61,557.61,0,0,1-62.19-17c-1.39-.45-3.15-.44-3.83-3.65,6.89,1.43,13.36,2.71,19.8,4.14,6.29,1.4,12.55,2.92,18.81,4.48,2.2.55,2.58-1.21,3.48-2.38Z"/><path class="cls-1" d="M2375.26,976.17c26.85-6.23,53.44-4.92,79.8-7.22a5.86,5.86,0,0,1,3.11.62,3.92,3.92,0,0,1,2,2.18,3,3,0,0,1-1,2.59,16,16,0,0,1-6.08,1.75C2427.1,976.2,2401.18,976.17,2375.26,976.17Z"/><path class="cls-1" d="M2685.22,1017.74a40.15,40.15,0,0,1,5.57-1.08,706.3,706.3,0,0,0,90.15-9.34,7.47,7.47,0,0,1,3.2-.19c.77.24,1.8,1.29,1.8,2,0,.87-.82,2.38-1.48,2.49-6.92,1.21-13.84,2.71-20.82,3.13C2737.86,1016.27,2712.16,1020.21,2685.22,1017.74Z"/><path class="cls-1" d="M2698.88,999.19c4.39-3.1,9.15-2.71,13.79-3.19,4.26-.44,8.44-1.86,12.69-2.08,16.15-.81,32-3.83,47.81-6.78a24.38,24.38,0,0,1,6.39-.12,3,3,0,0,1,2.2,1.52c.73,1.94-.91,2.77-2.27,3.57a3.68,3.68,0,0,1-1.55.41q-35.28,3.35-70.55,6.64C2704.58,999.41,2701.72,999.19,2698.88,999.19Z"/><path class="cls-1" d="M929.78,882c1.43-3.5,3.11-3.53,4.65-3.39q27.48,2.52,54.94,5.2c1.53.16,3,1.16,4.43,1.85a3.38,3.38,0,0,1,1.14,1c-.56.86-1.15,2.23-1.91,2.36a34.05,34.05,0,0,1-8,.49A478.8,478.8,0,0,1,929.78,882Z"/><path class="cls-1" d="M907.79,992.93c6.39.3,12.17,0,17.74.94,11.81,2,23.71,1.86,35.59,2.59s23.69,2.1,35.53,3.17c1.46.13,2.24.76,1.74,1.89a3.61,3.61,0,0,1-2,1.8,8.66,8.66,0,0,1-3.21,0q-41.9-4.06-83.77-8.21C909.08,995.06,908.79,994.28,907.79,992.93Z"/><path class="cls-1" d="M3583.55,785.55c-.49-1.29.8-3.17-1.69-3.82-2.89-.76-5.27.41-7.82,1.26-11.23,3.74-22.47,7.44-36.87,12.2,12.77-8.09,24.13-11.21,34.64-16.18,1.79-.85,4.2-1.3,2.81-4.25l-.22.09c3.78,2.42,7.85,1.06,10-3.34l-.28.13c4.55,1.79,6.66.72,6.76-3.42l-.21.12c3.63,2.74,7.11,1.59,10-3.32l-.38.42a5.6,5.6,0,0,0,1.25,1c1.42.58,3.72.67,4.17,1.65,1.26,2.71-1.32,3.41-3.19,4.15-6,2.36-12,4.45-17.91,7-3,1.34-3.12,4-1.12,6.58C3583.52,785.92,3583.55,785.55,3583.55,785.55Z"/><path class="cls-1" d="M1248.71,1009.68c1.39-.16,2.85-.68,4.16-.44,16.45,3.07,33.12,3.22,49.74,4.1a67.86,67.86,0,0,1,9.5,1.33c.84.17,1.49,1.3,2.23,2-.71.72-1.41,2.05-2.13,2.06-7.5.11-15,.48-22.49-.13C1275.85,1017.47,1261.82,1016.94,1248.71,1009.68Z"/><path class="cls-1" d="M2686.08,961.75c2.19-.89,3.49-1.75,4.89-1.93,16-2,31.94-4,47.92-5.92,2.63-.32,5.31-1.11,7.86.34.39.22.86.79.83,1.16a8.89,8.89,0,0,1-.71,2.88,2,2,0,0,1-1.38.75c-18,2.75-36.14,5.1-54.46,4.8C2689.64,963.8,2688.27,962.7,2686.08,961.75Z"/><path class="cls-1" d="M922.83,895c12.83,1.4,25.64,2.88,38.48,4.17,9.11.92,18.19,3,27.45,1.19.93-.18,2,.63,3.08.85,1.31.29,2.12,1.06,1.74,2.3-.24.75-1.18,1.8-1.84,1.82-17.94.73-35.61-1.71-53.2-4.9-5.31-1-10.58-2.1-15.86-3.15Z"/><path class="cls-1" d="M218.26,765.66c21.94,6,42.07,11.5,62.13,17.18,1.11.32,1.74,2.36,2.6,3.6-1,.33-2,1.1-2.89.92a313,313,0,0,1-58.28-17.79C220.93,769.19,220.38,768,218.26,765.66Z"/><path class="cls-1" d="M3613.47,749.09a23.24,23.24,0,0,1,4.46,1.08c1.69.77,2.17,3.2,1,3.8-5.75,2.89-11.73,5.33-17.67,7.83-2.09.88-1.52,2.2-.92,3.64l.38-.42c-1.24-4.3-4-2.11-6-1.11-1.74.88-6,0-4,4.43l.21-.12c-1.93-3.23-4.13-2.21-6.64-.63-2.34,1.47-.14,2.71-.12,4l.28-.13c-.81-2-1.91-3.51-4.53-3s-5.18,1-6.49,3.46c-.32.62.64,1.91,1,2.9l.22-.09c-2.53-2.1-6.66-3.15-14.58-2.31,8.07-3.38,12.71-5.44,17.43-7.28q12.63-4.93,25.34-9.64c2.12-.79,1.6-2.11,1.11-3.56l-.22.09c3.4,2.54,7.11,1.31,10-3.33Z"/><path class="cls-1" d="M318.15,738.12c-22.8-1.66-51.82-9.28-65.39-17.5,22.05,5.06,43.11,9.87,64.13,14.81C317.49,735.57,317.74,737.19,318.15,738.12Z"/><path class="cls-1" d="M2393.4,1039.17c17.55-.37,35-.2,52.27-3.06,1.48-.25,3.29.2,2.77,2.44-.21.9-1.07,2.34-1.67,2.36-17.58.55-35.16,4.23-52.75.27C2393.77,1041.13,2393.7,1040.21,2393.4,1039.17Z"/><path class="cls-1" d="M216.3,781.14l57.8,14.57c-.1.74-.2,1.48-.29,2.22-3.94-.39-8.1-.12-11.79-1.29C247.75,792.11,232.44,790.55,216.3,781.14Z"/><path class="cls-1" d="M2389.57,993.59c8.89-1.07,17.76-2.46,26.68-3.13,11.22-.83,22.49-1.1,33.74-1.56a1.74,1.74,0,0,1,2,2.08c-.13.86-.63,2.23-1.2,2.37-3.62.83-7.3,1.89-11,1.94-16.66.2-33.33.09-50,.09Z"/><path class="cls-1" d="M304.88,877.77a179.22,179.22,0,0,1-53.11-17.11C269.57,866.28,288.26,869,304.88,877.77Z"/><path class="cls-1" d="M988.75,939.15c-20.48,1.2-40.77-2.23-61.27-3C948.1,933,968.27,937.59,988.75,939.15Z"/><path class="cls-1" d="M1295.25,977.69c-6.19,3.65-9.92,2.68-13.58,2.29-3.2-.35-6.36-1-9.56-1.4q-5.58-.72-11.19-1.24c-3.21-.3-6.43-.47-9.64-.7a33.38,33.38,0,0,1-10-1.76C1258.76,972.58,1276,973.57,1295.25,977.69Z"/><path class="cls-1" d="M241.35,842.58l50.15,14.54c1.35.39,1.84,1.34,1.05,2.51-.51.75-1.58,1.78-2.24,1.68a150.89,150.89,0,0,1-45.93-14.22C243.59,846.69,243.22,845.43,241.35,842.58Z"/><path class="cls-1" d="M1297.05,998.37a44.15,44.15,0,0,1-5.73.28q-22.58-1.74-45.13-3.68c-.82-.07-1.55-1.21-2.49-2,9.3,0,18.45-.35,27.55.1C1280,993.51,1289.18,991.93,1297.05,998.37Z"/><path class="cls-1" d="M245,810.67c-.4,1.5-.82,2.83,1.39,3.46,8.27,2.39,16.51,4.9,24.75,7.42,1.14.35,1.42,1.42.8,2.63a1.61,1.61,0,0,1-1.2.8,49,49,0,0,1-6.3-.74c-12.16-2.52-23.53-7.39-35.82-11.81,2.89-4.45,5.85-.63,8.37-.88,2.71-.27,5.78,3.91,8.15-.73Z"/><path class="cls-1" d="M1259,1026.5c5.86,0,11.74-.22,17.59,0,11.78.54,23.54,1.36,35.31,2,1.61.09,3.24,0,4.82.21,2,.3,4.76,0,4.83,2.81.1,4.2-3.54,3-5.82,3.1a39.89,39.89,0,0,1-8-.45c-12.73-1.73-25.44-3.59-38.17-5.34-3.68-.5-7.38-.76-11.08-1.14Z"/><path class="cls-1" d="M927.87,916.22A127.39,127.39,0,0,1,956,917.54c9.41,1.58,19.29.42,29,.43,2.56,0,5.36-1.13,7.61,2.33-11.34,2.09-22.52,1.34-33.22-.85C948.9,917.32,938.24,918.2,927.87,916.22Z"/><path class="cls-1" d="M3586.43,721c11.23-4.75,22.44-9.56,33.73-14.18a18.89,18.89,0,0,1,6.33-1,3.49,3.49,0,0,1,2.36,1.53c.82,1.13.18,1.84-1.15,2.41A152,152,0,0,1,3586.43,721Z"/><path class="cls-1" d="M236.42,830.14c14.56,5.31,30.47,5.85,44,13.65.28.17.22.92.48,2.09A101.43,101.43,0,0,1,236.42,830.14Z"/><path class="cls-1" d="M3603.92,752c-.68-1.33-.79-3.38-3-3-4.34.76-8.65,1.7-13.35,1.21,11.06-5.06,22.09-10.16,33.19-15.11a2.92,2.92,0,0,1,2.77.67c1,1.63-.1,2.91-1.53,3.75-3.19,1.89-6.62,3.45-9.57,5.65-1.5,1.12-.13,2.81,1,3.94l.26-.36c-.93-3.24-3.3-3.77-6-2.68-2,.83-5.55.54-4.58,4.52a13.86,13.86,0,0,0,.52,1.49Z"/><path class="cls-1" d="M2434.26,1011c6.94-.42,13.88-1,20.83-1.19a3.09,3.09,0,0,1,3.23,2.7,2.78,2.78,0,0,1-2.39,3.39,48.81,48.81,0,0,1-7.94.48c-10.17.08-20.35.44-30.49,0-5.34-.24-11.08,3.65-16.07-1.18,5-4.31,11.19-2.27,16.82-3.1C2423.53,1011.27,2428.92,1011.28,2434.26,1011Z"/><path class="cls-1" d="M245.14,810.82c.87-1.32,1.47-2.43.35-4.16-1.92-2.95-6.4-1.28-7.93-4.77,1.41-2.43,3.58-1.13,5.26-.8,9.5,1.83,19,3.84,28.41,5.93a2.55,2.55,0,0,1,1,2.28c-.33.85-1.54,2.08-2.18,2-6.89-1.14-13.73-2.53-20.6-3.79-2.49-.45-4.05.62-4.49,3.18Z"/><path class="cls-1" d="M3626,723c-4.24,3.66-8.32,4.45-12.06,5.82-1.35.49-3,.07-4.74-.67C3614.26,726.2,3618.54,722.08,3626,723Z"/><path class="cls-1" d="M1258.56,955.1c12.08-2.6,20.79-1.61,29.49-.15C1279.34,958,1270.63,956.92,1258.56,955.1Z"/><path class="cls-1" d="M1019.84,1025l-.64.26a2.78,2.78,0,0,0,.22-.54S1019.84,1025,1019.84,1025Z"/><path class="cls-1" d="M2831.94,787.7c-29.2,2.24-60.69,3.35-91.79,7.42-29,3.8-58,6.55-87,9.46-10.67,1.07-21.08,4.69-31.58,7.22-29.61,7.12-59.69,10.4-90.06,12.07-21.1,1.16-42.1,3.82-63.18,5.41-36.76,2.78-73.58,4.51-110.46,5-37.39.44-74.74,1.72-112,4.92a1039.46,1039.46,0,0,1-118.56,3c-50.92-1.43-101.88-3.38-152.87-1.91a256.14,256.14,0,0,1-43.82-2.14,90.6,90.6,0,0,0-19.47-.7c-41.68,3.12-83.35,3.74-125.06.61a259.47,259.47,0,0,0-26-.66c-30.94.76-61.78-1-92.65-2.49-21.11-1-42.31-.22-63.41-1.45-41.11-2.42-82.26-4.36-123.24-8.77-16.16-1.74-32.39-3-48.63-3.88-43.86-2.49-87.48-7.72-131.23-11.4-21.53-1.8-43-6-64.78-3.94-2.64.24-5.38-.51-8.08-.78-26.91-2.71-53.82-5.45-80.73-8.07-4.84-.48-9.72-.59-14.58-.6-22.3,0-44.16-4.72-66.35-6.09-18.35-1.14-36.61-4-55-4.93-19.54-1-38.52-5.54-57.81-8.07-11.82-1.55-23.53-3.23-35.47-3.62-36.23-1.16-72.44-2.73-108.33-8.26-32.62-5-65.15-10.61-97.8-15.4-43.85-6.44-87.72-12.76-131.88-17-24.21-2.33-48.06-7.6-71.55-13.92-29.7-8-59.7-14.77-89.49-22.32C394,690,369,683.51,344.64,674.49c-19.74-7.32-40-13.12-59.91-20.06-22-7.66-43.76-15.79-65.56-23.89a55.15,55.15,0,0,1-11.54-5.85c-26.36-17.81-53.65-34.26-76.55-56.9-12.28-12.15-24.47-24.23-34.72-38.14-7.74-10.5-14.72-21.34-15.86-34.9a50.41,50.41,0,0,0-2.21-11.15C70.87,460.46,78,440.84,93.64,424a239.13,239.13,0,0,1,48.66-40.24c23.91-14.92,49.31-27.11,74.21-40.21q51.7-27.23,105.79-49.35c36.49-14.95,72.79-30.59,110.45-42.51,19.07-6,38.49-10.94,57.79-16.25,12.53-3.45,25.22-6.38,37.67-10.13,29.6-8.91,60.21-13.18,90.28-19.94,23.19-5.21,46.39-10.36,69.91-14,7.44-1.15,14.71-3.49,22-5.5,23.06-6.34,47-8,70.33-12.62,24.92-4.86,50-8.92,74.92-13.69s49.85-10.15,74.82-15c12.75-2.46,25.62-4.35,38.46-6.35,50.32-7.83,100.62-15.91,151-23.22,18.74-2.72,37.75-3.5,56.62-5.29,45.83-4.34,91.63-9.2,137.52-12.79,10.52-.82,21.4,1.45,32.16.33,24.22-2.53,48.7-2.64,72.6-8.3,6.79-1.61,14-1.35,21-2.18q68.64-8.13,137.63-12.5c27-1.71,54-4.1,81.08-5.91,15.14-1,30.32-1.41,45.47-2.21q59.27-3.14,118.53-6.34c7-.37,14.08-.34,21.12-.54,45-1.27,89.93-2.72,134.9-3.74,16.24-.37,32.48.65,48.72,1.6,22.71,1.34,45.53,1.57,68.29,1.27,44.51-.59,88.83,3,133.22,5,4.33.19,8.72.76,13,.29,29.18-3.2,58.48-2.56,87.7-1.89,35.71.81,71.41,2.91,107.08,5,21.62,1.25,43.14,3.09,64.88,2.62,14.53-.32,29.12,2.23,43.68,3.55,20.49,1.86,41,3.27,61.45,5.81,25.24,3.13,50.35,7.35,75.54,10.88,35.41,5,70.53,11.71,106.17,15.27,24.17,2.41,48.39,5.48,72.19,10.26,17.52,3.51,35.27,5.29,52.73,8.85,12.2,2.49,24.25,5.67,36.4,8.37,8.45,1.87,16.92,3.76,25.47,5.06,39.06,6,78,12.81,116.49,21.59,27.92,6.36,55.7,13.32,83.57,19.89,18.41,4.35,36.69,9.71,55.34,12.42,24.25,3.54,46.91,12.52,70.52,18.15a214.37,214.37,0,0,1,35.19,11.82c10.84,4.67,22.69,6.94,34.05,10.41a325.08,325.08,0,0,1,42.36,15.91c15.17,7,31.12,12.38,46.4,19.21a354.2,354.2,0,0,1,43,22.47c14.67,9.14,29.91,17.47,44.95,26,31.48,17.9,58.69,40.91,82.92,67.39,16.82,18.37,32.13,38.22,42.56,61.11,4.46,9.77,7.24,20.31,10.74,30.51a27.28,27.28,0,0,1,.63,14.49c-4.76,22.67-12.93,43.19-31.6,58.87-19.51,16.39-39.53,31.62-61.91,44-14.71,8.13-29.45,15.77-45,22.16-10.87,4.47-20.64,11.62-30.89,17.59-14.55,8.48-30.27,14.34-46.19,19.41-5.64,1.8-11,3.78-16.53,6-9.95,4-19.63,8.8-30.35,10.88-5.2,1-10.1,3.54-15.14,5.36-7.63,2.74-15.21,5.63-22.91,8.16-24.16,7.93-48.11,16.65-72.6,23.37-39.08,10.72-78.23,21.28-118.05,29.12-17.46,3.43-34.58,8.54-51.86,12.86a810.29,810.29,0,0,1-113.44,19.58c-43,4.47-85.84,10.38-128.62,16.76C2877.41,786.07,2855.82,788.69,2831.94,787.7Zm830.22-318.63c.14,1.29,0,3.43,2,2.31,1.46-.83.58-2.61-.74-3.64a34.62,34.62,0,0,0-5.57-18.34c-16.24-26.28-33.6-51.68-56.52-72.77-2.39-2.2-4.84-4.36-7.13-6.67-18.36-18.55-38.78-34.44-60.65-48.7-14.54-9.47-30.22-16.69-45.3-25.05-27.44-15.22-57.17-25.27-86.48-36.2-5.57-2.07-11.17-4.12-16.79-6.07-9.66-3.36-19.16-7.45-29.08-9.76-14.75-3.44-29-8.42-43.41-12.87-20.59-6.35-40.94-13.48-62.2-17.49-15.33-2.89-30.56-6.28-45.92-9-6.43-1.14-11.75-5.54-18.6-5.37-8.76.22-17-2.91-25.43-4.8-12-2.71-23.94-6.17-36-8.69-30.67-6.39-61.4-12.51-92.13-18.61-13.22-2.62-26.41-5.54-39.76-7.21-21.91-2.75-43.63-6.55-65.31-10.59-28.06-5.24-56-11.54-84.17-15.65-45.39-6.61-90.7-14-136.36-18.68-3.23-.33-6.47-.72-9.67-1.31-19.54-3.64-39.08-7.07-58.8-9.78-10.19-1.4-20.61-1-30.49-3.31-20.58-4.9-41.66-5.3-62.47-7.76-26.18-3.1-52.52-5.73-79-4.69a74,74,0,0,1-9.71-.77c-18.71-1.77-37.41-3.75-56.14-5.21-5.31-.41-10.86,1.61-16.06.86-10.74-1.55-21.41-1.84-32.24-2.18-21.89-.7-43.69-3.17-65.62-.45-3.12.39-6.4-.55-9.61-.87s-6.73-1.68-9.57-.8c-13.85,4.31-27.93,2.59-42,2.41-11.35-.14-22.8.57-34-.61-34-3.59-68.07-2.78-102.15-2.71-17.83,0-35.73.29-53.49-1.08-18.92-1.45-37.85-1.85-56.74-1.54-35.73.59-71.45,2.31-107.18,3.33-16.76.48-33.64-.68-50.28.83-27,2.45-54,3.07-81,4.77-32.83,2.06-65.84,1.81-98.72,4-25.39,1.68-50.75,4.11-76.17,5.2q-69.74,3-139.13,10.3c-23.69,2.48-47.35,5.22-71,7.92-5.38.62-10.74,2.31-16.08,2.18-29.86-.71-59.46,3.38-89.13,5.33-36.17,2.38-72.14,8.1-108.1,13.08-32.72,4.54-65.34,9.87-98,15.17-28.84,4.69-57.61,9.77-86.39,14.78-18.14,3.16-36.23,6.55-54.36,9.74-26.63,4.69-53.22,9.58-80,13.34-16.61,2.33-33,6.1-49.55,8.85C738,200.16,702.32,206,667.22,214.81c-40.87,10.25-82.28,18.18-123.06,28.78-9.39,2.44-18.54,5.82-28,8.07-25.68,6.13-51.49,11.73-76.5,20.41-3,1.06-6.36,1.31-9.47,2.21-13.94,4-28.51,6.72-41.62,12.61-17.72,8-36.1,14.16-53.73,22.2-7.84,3.57-15.58,7.57-23.74,10.19-19.1,6.11-37,14.92-55.23,23.07-17.6,7.88-34.93,16.5-51.75,25.93-22.54,12.64-46.81,22.09-67.7,37.88a299.56,299.56,0,0,0-33.11,28.6c-6.5,6.61-10,15.34-12.87,24.15-.39,1.2.28,3.55,1.23,4.17s3.26.19,4.31-.63q23.81-18.36,47.4-37c5.81-4.56,11.88-8.52,18.43-10.17-19.59,16.31-39.39,33.06-59.5,49.43-9.36,7.63-14.2,15.93-7.71,27.74a15,15,0,0,1,1.16,4.72c.22,1.35.85,2.1,2.19,1.86,1-.17,2.3-.36,2.72-1,4.06-6.4,8.19-12.73,13.46-18.26,17.09-17.9,35.94-33.4,62-44.28-8.1,5.74-13.62,9.79-19.29,13.62a189.51,189.51,0,0,0-41.77,38.35c-4.71,5.86-8.26,12.67-12.15,19.17a3.44,3.44,0,0,0,.66,4.37c1.92,1.79,3.88,1.56,5.69,0,1.64-1.41,3-3.1,4.61-4.58C129,492.39,144.5,478.8,161.3,466.81a43.79,43.79,0,0,1,6.92-4.08c.7-.33,2.22.26,2.88.92a3,3,0,0,1,.47,2.74c-2,4.07-5.94,6.19-9.28,8.9-16.42,13.33-32.87,26.63-47.34,42.15-4.09,4.38-3,10,2.61,13.21a5,5,0,0,0,4.39-.06,43.58,43.58,0,0,0,6-5.41,219.08,219.08,0,0,1,35.5-28.31c2-1.24,4.07-3.35,7.39-.86-2.61,2.3-4.9,4.53-7.42,6.48-11.17,8.64-21.24,18.51-31.23,28.45a37.86,37.86,0,0,0-5.19,6.19c-1.31,2-.43,4,1.28,5.7s3.74,2.75,5.75,1.5a58.54,58.54,0,0,0,7.48-6.09c8.11-7.17,16.16-14.42,24.29-21.57,1.93-1.7,4-3.4,6.79-.68-8.9,8.78-17.74,17.45-26.51,26.2a97.24,97.24,0,0,0-6.53,7.23c-1.66,2-.77,3.84.76,5.66,1.73,2.06,3.73,1.8,5.79,1a7.52,7.52,0,0,0,2.64-1.85c8.35-9.24,18.23-16.77,27.59-24.9a294.05,294.05,0,0,1,41.92-30.46c26-15.5,52.33-30.3,79.94-42.89,35.41-16.16,70.67-32.54,107-46.6,47-18.18,95.24-32.33,143-48,28.28-9.26,57.18-16.28,85.85-24.16,54.21-14.9,108.54-29.26,163.57-40.83,12.72-2.67,25.63-4.59,38.17-7.94,27.24-7.28,55-11.62,82.84-15.45,28.4-3.9,56.7-8.45,85.07-12.6,15-2.2,30-4.83,45-6,20.49-1.63,40.92-3.47,61.36-5.91,37.64-4.5,75.44-7.74,113.24-10.69,40.5-3.16,81-6,121.67-6.68,3.8-.06,7.6-.2,11.37-.6,25.31-2.66,50.62-4.89,76.1-5.49,33-.79,66-2.37,99-3.51,14.62-.5,29.32.1,43.84-1.3,18.82-1.81,37.56-4.35,56.52-4.49,27.07-.21,54.17.16,81.21-.86,51.36-1.94,102.75-2,154.13-2.83,21.1-.35,42.21-.65,63.31-1.31,16.21-.51,32.39-1.73,48.59-2.29,19-.66,37.93-.42,56.85-1.48,54.67-3.07,109.38-2.31,164.08-2.4,32.5-.05,65,.39,97.51.63,40.63.3,81.26.38,121.88,1,29.2.46,58.38,1.92,87.58,2.49,29.76.59,59.5,1.55,89.15,4.11s59.23,5.66,88.79,9c27.45,3.06,55,5.07,82.53,6.52q14.58.76,29.11,2c24.27,2.17,48.5,4.67,72.77,6.73,36.12,3.06,72.29,5.55,108.2,10.69a641.65,641.65,0,0,1,79.34,17c12.5,3.44,24.79,7.53,37.57,10,14.33,2.75,28.5,6.29,42.85,8.83,10.75,1.91,20.65,6.44,31.15,8.91,25.21,5.91,50.54,11.19,75.41,18.61,21.84,6.51,43.29,13.74,63.87,23.52,16.1,7.66,32.07,15.62,48.33,22.93,32.12,14.44,63.2,30.87,93.77,48.3a70.51,70.51,0,0,1,8.06,5.42c33.14,25.56,63.23,54.4,91.48,85.21,7.32,8,14.11,16.49,21.71,24.2a77.51,77.51,0,0,1,16.66,25.72c2.65,6.51,5.05,13.12,7.74,19.61a3.23,3.23,0,0,0,2.65,1.23c1.81-.1,2.64-1.42,2.73-3.23.21-4.61-2.5-8.27-4.19-12.17-5.3-12.17-11-24.15-16.74-36.52,5.44-.41,7.21,3.45,9.42,6.17,5.83,7.19,10,15.4,14.14,23.67,1.91,3.87,3.88,7.71,6,11.46a4.06,4.06,0,0,0,2.6,1.78c4,.56,10.64-7.79,8.66-11.17-6.86-11.66-14.05-23.12-21.07-34.68-2.09-3.44-5.58-6.29-5.82-12.22,7.15,3.8,10.69,9.08,14.28,14.26,6.48,9.33,12.79,18.78,19.29,28.1,1.47,2.11,3.68,2,5.65.52,6.13-4.5,6.89-7.12,3.63-13.49a290.93,290.93,0,0,0-36.11-53.85c-2.78-3.33-5.57-6.64-8.49-9.85-1.36-1.5-1.33-3-.1-4.19,1.39-1.37,3.21-.44,4.26.49a121.06,121.06,0,0,1,11.66,11.2c13.78,16,27.38,32.21,36.93,51.31,1.69,3.38,5.18,2.86,7.53-.67A8.3,8.3,0,0,0,3653,515c-8.8-18-17.2-36.25-30.82-51.33-7.25-8-14.87-15.74-22.22-23.68-1.72-1.87-4-3.92-1.44-7a152.14,152.14,0,0,1,24.86,20.46,194.08,194.08,0,0,1,20.1,23.37c6.14,8.56,8.75,19.55,17.45,26.89,1.63-3.24,2.84-6.06,1.71-8.53-4.95-10.77-8.26-22.36-16.09-31.73-10.43-12.47-20.62-25.14-30.8-37.82-1.12-1.4-3.63-2.82-1.58-5.42.94.19,2.18.05,2.72.6,7.25,7.31,14.52,14.61,21.55,22.13C3646.5,451.56,3654.28,460.36,3662.16,469.07ZM195.86,595.64l-.27-.22c-.34.93-1.21,2.44-.93,2.7,10.24,9.38,21.15,15.51,36.27,14.25,38.9-3.24,77.95-3.83,117-3.62,3.76,0,7.52.44,11.28.68,1.52.1,1.76.82,1.48,2.24-.22,1.16-.54,2-1.87,2.22a28,28,0,0,1-4.75.84c-15.72.13-31.44.13-47.15.25q-39.84.32-79.66.77c-.21,0-.42.69-1.35,2.35a35.43,35.43,0,0,0,24.58,8.57c38.48-.92,77-1.58,115.43-2.31a43.38,43.38,0,0,1,8.07.27,4.81,4.81,0,0,1,4.22,4.26c.37,3-1.87,3.65-3.94,3.92a70.15,70.15,0,0,1-8.08.24c-29.24.29-58.48.43-87.69-1a73.59,73.59,0,0,0-8.13-.16c-2.71.16-5.81-1-9.46,2.17,14.17,7.07,28.24,10.41,42.27,13.77,2,.48,4.32,0,6.48-.22,25.33-2.68,50.89-2.11,76.19-5.6,7.4-1,15-2.8,22.59-.79a3.15,3.15,0,0,1,2,2.19c0,.79-1,1.88-1.88,2.32a12.16,12.16,0,0,1-4.57,1.45c-17.83,1.16-35.5,4.29-53.45,3.94-5.38-.11-10.77.64-16.16,1-1.25.09-1.51,1-1.79,2.25s-.07,1.82,1.24,2.46c5.1,2.47,10.45,2.14,15.89,2,23.3-.66,46.61-1.24,69.92-1.61,4.7-.07,9.71-1.29,14.06,1.84-3.07,6.19-9.11,3.54-13.85,4.48-3.14.62-6.49.27-9.74.22-13.56-.23-27.11-.56-40.66-.74-2.31,0-5.12-1-7,3.08,6.82,1.93,13.41,3.76,20,5.64,11,3.16,22.14,3.88,33.7,3.11,20.53-1.35,41.15-1.42,61.73-2a20.94,20.94,0,0,1,4.82.23,4,4,0,0,1,2.32,1.79c1.08,1.92-.57,3.11-1.84,3.63-6.71,2.74-13.87,1.6-20.84,2.06-5.91.39-11.85.38-17.78.6-1.42.06-2.09.84-1.74,2,.27.88.58,2.21,1.22,2.46,9.27,3.56,19,3.94,28.79,3.92s19.51-.18,29.27-.17c4.76,0,9.75-.8,13.65,3.1-2.59,7.82-9.28,2.41-13.7,4.3-.68.29-1.08,1.23-1.73,2,20.61,7.23,42.14,9.77,63.24,13.91,19.53,3.84,39.58,5,59.39,7.51,23.59,3,47.38,5,70.68,9.47,21.81,4.23,43.85,6.38,65.7,10q35.12,5.84,70.33,11c12.28,1.81,24.65,3.85,37,4.09,37.94.75,75.65,3.42,113,10.12a213,213,0,0,0,24.05,2.75c27,1.72,54,3.17,80.93,4.77,2.69.16,5.36.66,8,.93,14,1.38,28,3.06,42,4,23.18,1.59,46.39,2.7,69.59,4.05a27.51,27.51,0,0,1,6.43.84c23.6,7,48,8.06,72.3,9.9,8.09.61,16.21.74,24.3,1.37,29.68,2.34,59.33,4.95,89,7.16,29.15,2.17,58.33,4,87.5,5.91,24.32,1.59,48.65,3.08,73,4.6,5.39.33,10.79.61,16.18.89,18.9,1,37.79,2.15,56.69,2.89,15.13.59,30.29.36,45.42,1,20.56.91,41.09,3.13,61.65,3.36,25.43.27,50.83.73,76.25,1.67,18.8.69,37.69.29,56.56-.13,21.62-.48,43.28-2.8,64.94-.58,7.54.77,15.09,1.54,22.64,2.12,31.31,2.41,62.65,3.86,94,2.29,24.82-1.24,49.63.09,74.47-.5,36.79-.88,73.59-.47,110.31-3.76,24.79-2.22,49.67-3,74.51-4.28,30.84-1.59,61.7-.45,92.5-2.49,24.26-1.61,48.67-1.37,72.82-3.78,22.61-2.26,45.2-4.36,67.86-5.81,26.49-1.7,52.32-8.08,78.62-11,19.33-2.17,38.41-6.77,58-6.09a50.78,50.78,0,0,0,8-.63c20.38-2.6,40.73-5.45,61.14-7.81,23.65-2.73,47.21-7,71.09-6.89a389.57,389.57,0,0,0,48.56-3.13c16.08-2,32-4.9,48.15-6.48,22.6-2.22,44.92-6.38,67.5-8.91,23.06-2.58,46.05-6,69.15-8.56,14-1.54,28.09-3,41.79-6.12,27.38-6.16,54.46-13.6,81.77-20.11,18.41-4.39,37-8.09,55.49-12.08,5.28-1.14,10.59-2.16,15.86-3.34,23.19-5.18,46.35-10.53,69.05-17.57,1.82-.57,5.36-.61,4.52-5-3.85,0-7.61,0-11.37,0-4.33.07-8.68.46-13,.26-3.35-.16-7.23,1.09-11.09-2.56,17.41-1.57,33.46-3.44,49.56-4.37,21.88-1.26,42.76-5.93,62.45-15.73,2.06-1,4.14-1.95,3.3-4.41-.36-1-2.53-1.89-3.95-2a49,49,0,0,0-8.12.13q-34.87,2.44-69.74,4.93a76.82,76.82,0,0,1-8,0,1.64,1.64,0,0,1-1.67-2.29,4.39,4.39,0,0,1,1.64-2.37,8,8,0,0,1,3.18-.51c34.58-2.56,69.09-6.1,103.78-7.25,6.47-.21,13.26-.25,19.28-2.24,15.93-5.27,31.52-11.55,47.19-17.56.61-.23,1.12-1.91.91-2.71a3,3,0,0,0-2.17-1.84c-10.8.26-21.6.69-32.4,1.07-31.95,1.13-64,.09-95.86,3.25-3.56.35-7.19,0-10.79,0a167.26,167.26,0,0,1,33-5.6c43.22-2.56,86.46-4.73,129.7-6.87,3-.14,5.08-1.42,7.39-2.72a376.21,376.21,0,0,1,45.25-21.87c5.32-2.12,10.73-4.61,13.92-9.5-2.18-4.22-4.38-7.41-5.54-10.94-4.14-12.57-11.22-23.45-19.47-33.48-12.72-15.46-26.05-30.38-41.17-43.61-7.3-6.39-14.38-13.05-21.39-19.76-25.1-24-52.22-45.09-83.13-61.46-30.15-16-61.39-29.53-92.07-44.32-14.59-7-29.53-13.73-44.93-18.65-23.68-7.57-47.17-15.93-71.59-21-5.81-1.22-11.7-2.26-17.35-4a816.17,816.17,0,0,0-96-23.78c-3.16-.58-6.29-1.4-9.38-2.28-11.95-3.38-23.78-7.26-35.84-10.19A769.32,769.32,0,0,0,2920.17,265c-37.79-3.21-75.6-6.7-113.21-11.53-39.79-5.12-79.92-6.39-119.64-12.33-24.09-3.6-48.49-5.15-72.73-7.76-27-2.91-53.9-5.73-81.08-5.56-12.46.08-24.93-.67-37.39-1.07-49.85-1.57-99.69-3.59-149.55-4.58-32-.63-64,.47-96,.41-51.52-.09-103-.89-154.54-.62-31.44.17-62.87,1.83-94.3,2.77-14.09.43-28.25.07-42.27,1.25-34.07,2.87-68.21,3.57-102.35,4.3-39,.83-78.1.65-117.1,2.19-32,1.27-63.93,2-95.93,2.07a470.6,470.6,0,0,0-50.33,2.46,645,645,0,0,1-64.91,3.73c-49.34.34-98.61,2.71-147.79,6.63-11.89.95-23.76,2.2-35.66,2.88-27.6,1.59-55.25,2.36-82.81,4.48C1219.93,258,1177.3,262,1134.67,266c-21,2-41.94,5.69-63,6.94-23.34,1.38-46.41,4.54-69.34,8.43-26.71,4.54-53.54,8.14-80.31,12.17-22,3.31-44,5.88-65.62,11.46-11,2.84-22.12,5.39-33.3,7.45-39.94,7.39-79.57,16.14-118.7,27C640.77,357,576.63,372.75,514.1,394.22c-35.84,12.3-72,23.72-107,38.34-34.44,14.41-68.41,30-102.49,45.24-29.15,13.07-57.95,26.92-85.08,43.88-13.76,8.6-26.9,18.19-40.18,27.53-7.09,5-13.92,10.32-20.77,15.63-2.29,1.78-3.77,4.41-1.12,6.75,10.94,9.66,22.29,18.81,35,26.17C194.33,598.86,195.11,597,195.86,595.64Z"/><path class="cls-1" d="M3324.55,566.4c6.89-5.1,11.82-5.42,16.61-5.81,25.34-2.05,50.67-4.34,76.05-5.8,31.31-1.8,62.77-.89,94-4.55a21.65,21.65,0,0,1,4.82.16,3.07,3.07,0,0,1,2.76,3.35c-.05,1.42-.76,3.68-1.74,4a33,33,0,0,1-9.37,2c-20.52,1.09-41,2.56-61.57,2.85-33,.47-66,.92-98.91,3.73C3340.89,566.86,3334.5,566.4,3324.55,566.4Z"/><path class="cls-1" d="M195.86,595.64c3.31-3.73,6.21-7,12.34-7.08,33-.27,66-3.41,99.06-.15,12.89,1.27,26,.29,39,.51,3.15.06,6.6-.39,9.28,1.92a5.67,5.67,0,0,1,1.23,2.83c.08.31-.47,1.05-.86,1.17-2,.61-4.05,1.49-6.1,1.52-12.46.22-24.93.37-37.39.29-30.34-.2-60.68-.53-91-.83-8.59-.08-17.18-.25-25.79-.39Z"/><path class="cls-1" d="M3315.53,511.45c-5.94.56-11.87,1.22-17.81,1.63-1.62.11-3.46-.78-3.43-2.65s1.85-2.1,3.38-2.31c20.94-2.95,41.91-5.59,63-6.64,28.72-1.42,57.18-5.39,85.75-8.34,5.38-.56,10.79-1,16.19-1.18a3.76,3.76,0,0,1,4.17,3.89,4.52,4.52,0,0,1-3.75,4.6,47.83,47.83,0,0,1-6.44.81q-70.55,5.24-141.08,10.43C3315.54,511.61,3315.54,511.53,3315.53,511.45Z"/><path class="cls-1" d="M3113.67,411.81c13.78-2.48,27.48-5.57,41.35-7.32,22.57-2.85,45.22-5.06,67.88-7.1,18.91-1.7,37.51-5.31,56.22-8.3a2.89,2.89,0,0,1,3.44,2.6,6.08,6.08,0,0,1-1.49,4.23,8,8,0,0,1-4.28,1.92c-11.23,1.82-22.42,4.11-33.73,5.13-28.6,2.59-57.26,4.43-85.87,6.88-14.47,1.24-28.88,3.16-43.32,4.77C3113.8,413.68,3113.74,412.75,3113.67,411.81Z"/><path class="cls-1" d="M3265.27,494.23c7-6.39,15.87-6.89,24.2-8.27,19.17-3.18,38.54-5.28,57.88-7.32,26.88-2.84,53.8-5.25,80.7-7.79a18.55,18.55,0,0,1,4.74.41,1.59,1.59,0,0,1,.88,1.19,5.34,5.34,0,0,1-.35,2.85c-1.55,2.49-4.13,3.32-6.9,3.57-11.3,1.05-22.59,2.56-33.92,3a1070.54,1070.54,0,0,0-120.94,12.3A41.23,41.23,0,0,1,3265.27,494.23Z"/><path class="cls-1" d="M3200.41,444c12.75-5.59,26.18-6,39.25-7.17,25.83-2.41,51.76-3.52,77.55-6.59,13.92-1.65,28-1.94,42-2.7a3.1,3.1,0,0,1,3.46,2.63c.38,2.4-.54,4.58-2.57,5.33a27.22,27.22,0,0,1-7.89,1.22c-48,2.56-96.09,4.24-144,8.62C3205.88,445.52,3203.09,446.84,3200.41,444Z"/><path class="cls-1" d="M3321.07,534.51c7.81-1.23,15.58-3,23.43-3.59,19.4-1.44,38.83-2.73,58.27-3.37,28.65-.94,57.21-2.74,85.7-5.83,3.22-.35,6.46-.58,9.7-.65,2.22,0,4.39.58,4.26,3.4a4.8,4.8,0,0,1-4,4.48,34.25,34.25,0,0,1-6.42.64c-21.59,1.16-43.18,2.42-64.77,3.37-10.8.48-21.62.33-32.43.57-18.38.4-36.77.23-55.07,2.66C3333.65,537,3327.28,538,3321.07,534.51Z"/><path class="cls-1" d="M3331.49,593.11q78.33-4,156.64-8c8.61-.45,17.19-1.31,25.8-1.76a2.89,2.89,0,0,1,3.06,3c-.17,1.38-1.2,3.59-2.17,3.78a120.49,120.49,0,0,1-17.46,2.64c-17.22,1-34.45,1.47-51.68,2.24-2.66.12-5.3.65-7.95,1-32.91-.69-65.81-.79-98.67,1.41a23.24,23.24,0,0,1-6.24-.31C3330.58,596.6,3331.57,594.57,3331.49,593.11Z"/><path class="cls-1" d="M230.49,544.33c34.76-3.79,68.8-6,102.86-7.76,20-1.06,40-2,60-3a29.54,29.54,0,0,1,6.45.26,3.19,3.19,0,0,1,1.78,2.29,3.61,3.61,0,0,1-1,2.78,5,5,0,0,1-3,1q-80.34,4-160.69,7.9C234.88,547.93,232.52,548.19,230.49,544.33Z"/><path class="cls-1" d="M209.84,560.78c6.17-3.82,12.31-2.87,18.08-3.23,25.91-1.59,51.88-2.46,77.75-4.49,18.89-1.48,37.73-3.16,56.69-2.9a76,76,0,0,1,11.29.82c1.35.23,3.37,1.81,3.5,3,.33,2.86-2.19,3.09-4.32,3-38.51-2-76.68,3.4-115,5.23-12.43.6-24.86,1-37.3,1.34C217.38,563.56,214,564.22,209.84,560.78Z"/><path class="cls-1" d="M3076.48,395.4c19.56-5.29,39.76-7.74,59.85-10.47,23-3.14,46.16-5.47,69.24-8.19,7-.81,13.9-1.83,20.87-2.55,1.77-.18,2.88,1.41,3,3.06A4,4,0,0,1,3228,380c-3.07,2.57-6.85,2.84-10.67,3.15-17.24,1.4-34.51,2.56-51.69,4.48-24.17,2.69-48.27,6-72.42,9-4.82.59-9.7.72-14.55,1.09C3077.3,397.75,3076.57,397.26,3076.48,395.4Z"/><path class="cls-1" d="M266.92,525.59c13.95-2.05,27.67-4.37,41.65-5.06,30.82-1.51,61.63-3.31,92.44-5a42.22,42.22,0,0,1,8.1-.09,5.24,5.24,0,0,1,3.51,2.77c.58,1.51-.83,2.8-2.4,3.43-5.15,2.05-10.62,1.94-16,2.14-20,.75-40.06,1.26-60.08,2.07s-40,1.89-60,2.87C271.41,528.88,268.66,529.33,266.92,525.59Z"/><path class="cls-1" d="M2957.34,364.69c20.54-7.48,41.77-10.34,63.06-12.6,23.17-2.45,46.33-4.85,69.22-9.37a84.24,84.24,0,0,1,9.67-1.17c2.32-.19,4.54.68,4.71,3.18.16,2.3-1.63,4.1-3.77,4.76a50.89,50.89,0,0,1-9.51,2.06c-19.92,2.13-39.82,4.54-59.79,6-19.47,1.44-38.87,3.2-58.15,6.31C2967.72,364.69,2962.49,364.45,2957.34,364.69Z"/><path class="cls-1" d="M3240.52,469c27.87-6.93,55.87-9.81,83.95-11.93,21.06-1.59,42.14-3,63.21-4.5a45.36,45.36,0,0,1,6.49,0c1.71.13,3.27,1.37,2.95,3a5.94,5.94,0,0,1-3,3.37,12.5,12.5,0,0,1-4.74.89c-9.19.71-18.36,1.53-27.56,2-27.59,1.42-55.2,2.56-82.78,4.11-10.8.62-21.55,2.09-32.33,3.1C3244.68,469.12,3242.59,469,3240.52,469Z"/><path class="cls-1" d="M3169.06,432.68c35.68-9.61,72.36-14,109.38-16,14.54-.8,29-2.64,43.53-4a16.75,16.75,0,0,1,4.8.15,3.28,3.28,0,0,1,2.18,1.85,3.22,3.22,0,0,1-1,2.52c-2.47,2.58-5.82,2.44-9,2.64-15.62,1-31.22,2.4-46.86,2.85-32.42.92-64.52,4.84-96.55,9.58C3173.37,432.6,3171.2,432.56,3169.06,432.68Z"/><path class="cls-1" d="M401.35,487.53c-25.53,0-42.76,0-60,0-1.6,0-3.34-.33-3.21-2.41a3.2,3.2,0,0,1,3-3.09c8.57-.67,17.15-1.71,25.73-1.74,24.79-.08,49.52-1.23,74.21-3.32,3.78-.33,7.57-.85,11,1.35a3.64,3.64,0,0,1,1.66,2.38,3.48,3.48,0,0,1-1.39,2.68,10.4,10.4,0,0,1-4.46,1.39C429.63,485.9,411.35,487,401.35,487.53Z"/><path class="cls-1" d="M2929.89,344.74c14.62-6,32.8-8.13,50.74-11.12,21.27-3.55,42.84-5.25,63.84-10.49a19.34,19.34,0,0,1,4.82-.35c2.37,0,4.27,1.06,4.28,3.62,0,2.25-1.15,4.52-3.41,4.91-8.49,1.5-17,2.94-25.57,3.87-26.8,2.92-53.77,4.4-80.34,9.39A46.58,46.58,0,0,1,2929.89,344.74Z"/><path class="cls-1" d="M287.77,577.82q-38.13,0-76.25,0c-2.11,0-4.24-.11-6.35-.29-.37,0-.77-.62-1-1-.69-1.14-.32-2.27,1.08-2.4,7-.66,14-1.63,21-1.62,45.44.06,90.88.34,136.32.57,3.74,0,7.64-.71,10.86,2,.31.26.27,1,.25,1.54-.09,2.17,2,.93-.07,1.4a42.64,42.64,0,0,1-9.52,1.19c-25.42-.17-50.84-.49-76.26-.76Z"/><path class="cls-1" d="M2874.29,325.19c4.83-4.86,9.08-5.25,13.23-5.74q30.61-3.63,61.25-7.16c7.52-.87,15-1.89,22.57-2.54a37.48,37.48,0,0,1,9.69.47,4.2,4.2,0,0,1,3.77,4.4c-.07,2-1.59,2.87-3.05,3.32a28.67,28.67,0,0,1-6.38,1.08q-47,3.33-94,6.55C2879.81,325.68,2878.19,325.41,2874.29,325.19Z"/><path class="cls-1" d="M3034.64,374.92c11.47.87,22.51-2.39,33.58-4.28,24.49-4.2,49.17-6.5,73.8-9.27,6.43-.72,12.8-1.89,19.22-2.71,2.08-.27,4.35-.71,6.12,1,.75.73,1.76,1.63,1.83,2.52a3,3,0,0,1-1.73,2.27c-8.38,2.21-17,3-25.59,3.34-31.8,1.42-63.43,4.46-94.73,10.41-2.56-.13-5.12-.32-7.68-.34C3037.2,377.86,3035.51,377.09,3034.64,374.92Z"/><path class="cls-1" d="M437.37,445.92c5.12-5,9.05-4.7,12.58-5,24.85-2.09,49.7-4.14,74.58-5.73,6.93-.45,14.11-1,20.94,1.38a2.75,2.75,0,0,1,1.72,3.87,3.15,3.15,0,0,1-2.24,1.73,293.9,293.9,0,0,0-40.58.08C482.75,443.81,461.09,444.66,437.37,445.92Z"/><path class="cls-1" d="M365.59,500.78c15.06-.8,30.11-1.66,45.18-2.32,2-.08,4.1.8,6.11,1.37.33.09.68.92.64,1.36-.1,1-.18,2.18-.78,2.77a4.9,4.9,0,0,1-2.92,1.09c-33.88,2.32-67.83,2.56-101.76,2.88a9.33,9.33,0,0,1-3.11-.76c-.16-.06-.09-.89,0-1.35s.18-1.38.42-1.43c3.65-.81,7.3-2,11-2.15,15.07-.71,30.15-1.11,45.23-1.62Z"/><path class="cls-1" d="M521,411.39c5.74-2.76,11.56-2.95,17.17-3.3,13-.82,26-1.08,38.93-1.66s25.94-1.29,38.9-1.91c1.6-.08,3.21,0,4.82.09a1.67,1.67,0,0,1,1.71,2.22c-.21,1-.52,2.38-1.2,2.68a13.13,13.13,0,0,1-4.72.92q-46.21,1.63-92.44,3.11C523.32,413.56,522.49,412.47,521,411.39Z"/><path class="cls-1" d="M2837.75,310.62c17.78-3.11,35.52-6.53,53.37-9.22,10.11-1.52,20.4-1.87,30.63-2.58.6,0,1.71,1.39,1.85,2.25a3.27,3.27,0,0,1-1.1,2.69,9.06,9.06,0,0,1-4.33,1.8q-36.47,2-72.71,6.61a61,61,0,0,1-7.65.05Z"/><path class="cls-1" d="M605.63,390.85a486.41,486.41,0,0,0,50.2-2.05,36.4,36.4,0,0,1,7.94.32c.68.09,1.62,1.57,1.61,2.4a3.23,3.23,0,0,1-1.74,2.32,12.89,12.89,0,0,1-4.69,1.08Q617.6,396,576.23,397c-.54,0-1.08-.14-1.62-.13-1.48,0-3.19-1-4.28.9a19,19,0,0,0,2.74-.87c.94-.45,1.71-1.38,2.68-1.65,2.59-.72,5.25-1.2,7.87-1.78C591.17,394.41,598.46,393.13,605.63,390.85Z"/><path class="cls-1" d="M2808.2,294.77c16.48-5,33.46-6.79,50.38-9a62.1,62.1,0,0,1,8-.74c.75,0,1.75,1.25,2.22,2.15,1,1.81-.44,2.85-1.72,3.79a3.1,3.1,0,0,1-1.43.65C2846.59,293.54,2827.56,296.44,2808.2,294.77Z"/><path class="cls-1" d="M424.59,456.29c11.23-.55,22.51-.61,33.67-1.79,17.12-1.82,34.3-1.24,51.43-2,4.42-.21,5.48,2.17,4.94,6-25.58.39-51.17.87-76.76,1.11C433.3,459.58,428.15,460.85,424.59,456.29Z"/><path class="cls-1" d="M508.87,426.9c20.2-3.64,40.75-3.1,61.08-5.26,8.53-.91,17.12-1.17,25.57-1.73.83,3.77-1.29,4-3.43,4.4-12.27,2.41-24.75,1.34-37.1,2.31-3,.24-6.6-1.13-8.67,2.5-.75-.74-1.48-2.11-2.25-2.13-10.19-.35-20.33-.48-30-4.6-2.58-1.09-4.91,1.26-5.71,4.21Z"/><path class="cls-1" d="M476.1,469.39c-15.38.11-30.76.26-46.15.3-4.77,0-9.55-.14-14.32-.38a5.53,5.53,0,0,1-4.9-3.45,102.22,102.22,0,0,0,23-.95c9,.8,18-.07,26.91-1.22,10-1.28,20.06-1.87,30.14-.58-1.43,3.07-3.85,4.51-7.22,4.83A75.32,75.32,0,0,0,476.1,469.39Z"/><path class="cls-1" d="M708.37,350.55c13.12-2.19,26-6.06,39.36-5.27,1.58.09,3.16.41,4.74.57s2.06.88,1.38,2.13c-.46.84-1.12,2.16-1.79,2.22A259.08,259.08,0,0,1,708.37,350.55Z"/><path class="cls-1" d="M630.13,378.24c17.66-.85,35.33-1.75,53-2.52,3.16-.13,6.5-.26,9.48.59,2.33.66,2,3.27,1.18,5.37-17.85,0-35.71.06-53.57,0C636.55,381.66,632.48,382.33,630.13,378.24Z"/><path class="cls-1" d="M665.61,362.26c19.26-.54,38.53-1.1,57.79-1.55.65,0,1.75,1.07,1.88,1.77.23,1.3-.65,2-1.85,2C704.14,364.86,684.85,365.36,665.61,362.26Z"/><path class="cls-1" d="M2800.38,277.26c8.59.71,16.68-2.29,25-3.28,4.27-.51,5.06,2.68,3.73,6.33q-11.12.21-22.24.39C2804.11,280.75,2801.67,280.07,2800.38,277.26Z"/><path class="cls-1" d="M508.79,429.82c-6.72-1.36-13.67,0-20.44-2.21-2.43-.78-5.83,1.46-8.64,2.91,9.86-.51,19.19-4.65,29.16-3.62l-.54-.3c.33.31.95.63.95.95A10.85,10.85,0,0,1,508.79,429.82Z"/><path class="cls-1" d="M546.23,269.27c-2.8-.46-4.28-1-4.85-2.77-.63-2,.77-3.06,2.19-3.51,10.8-3.41,21.76-6.35,32.45-10.06,48.06-16.68,97.38-28.4,147.26-38,5.29-1,10.59-2.06,15.91-2.89a3.2,3.2,0,0,1,3.79,2.05,4.76,4.76,0,0,1-1.9,5.71,24.61,24.61,0,0,1-7.53,2.53c-12.7,2.57-25.41,5.11-38.16,7.46-45.78,8.43-90.43,21.1-134.63,35.52C555.65,267,550.38,268.16,546.23,269.27Z"/><path class="cls-1" d="M751.85,263.09c-.49,1-.8,3.06-1.87,3.59a35.69,35.69,0,0,1-9,3.13C699.08,278,657.65,288,616.28,298.36c-17.27,4.31-34.38,9.25-51.6,13.75a17.86,17.86,0,0,1-6.27,0c-.29,0-.88-2.16-.5-2.62a8.86,8.86,0,0,1,3.7-2.77c34.44-11,69.14-21.05,104.28-29.56,15.73-3.8,31.37-7.91,47.09-11.75,11-2.69,22.07-5.33,33.47-5.67C748.51,259.65,750.82,260,751.85,263.09Z"/><path class="cls-1" d="M543.62,289.29c23.9-8.64,47.1-16.84,70.93-23.2,28.25-7.55,56.6-14.52,85.45-19.47,12.24-2.09,24.23-5.59,36.37-8.29a33.38,33.38,0,0,1,7.93-.55c.57,0,1.21,1.45,1.6,2.34.15.34-.25,1-.51,1.43-1.57,2.58-4.36,3.13-6.92,3.74-11.58,2.75-23.1,6-34.82,7.89-46.51,7.71-92.22,18.69-137.46,31.83C559,287.1,551.93,290.37,543.62,289.29Z"/><path class="cls-1" d="M1491.49,201.66,1405.87,207a19.64,19.64,0,0,1-3.23.19c-1.6-.17-3.34-.42-3.85-2.33-.55-2.1,1.14-2.66,2.58-2.89,3.2-.5,6.43-.87,9.67-1.06,34.58-2,69.17-4.15,103.76-6,18.92-1,37.86-1.58,56.8-2.26,5.39-.19,10.78-.12,16.17-.09,1.34,0,1.87.87,1.94,2.13.09,1.8-.49,3.34-2.26,3.62a74.11,74.11,0,0,1-9.65.88C1549.67,200,1521.53,200.82,1491.49,201.66Z"/><path class="cls-1" d="M1631.32,126.62c24.32-7.49,49-9.38,73.67-11.42,29.11-2.42,58.27-5.26,87.59-2.88,6.42.52,13-.59,19.46-.71a3.72,3.72,0,0,1,3.64,2.65c1,2.82-1.35,4.39-2.85,5a27,27,0,0,1-9.4,1.78c-8.67.17-17.36.22-26-.14a722.55,722.55,0,0,0-92.59,2C1667,124.42,1649.16,125.39,1631.32,126.62Z"/><path class="cls-1" d="M1643.08,105.86c17.72-5.1,34.18-9.23,51-10.69,40.86-3.55,81.79-6.33,122.69-9.38a70.43,70.43,0,0,1,8.09,0c2.26.1,4.84,1,5.12,3.15.41,3.24-2.81,4.09-5.21,4.6a60.49,60.49,0,0,1-9.63.87c-32.88,1.51-65.78,2.78-98.64,4.56-19.93,1.08-39.8,3-59.39,7.15C1653.08,107,1649,108.49,1643.08,105.86Z"/><path class="cls-1" d="M568,339.34c4.12-2.08,8.08-4.88,12.48-6.17,27.41-8,54.77-16.23,82.44-23.19,25.13-6.32,50.65-11.11,76-16.57,5.27-1.13,10.52-2.4,15.84-3.25,4.59-.73,8.25,1,7.93,3.35-.5,3.62-3.73,3.4-6.16,3.87-14.84,2.87-29.66,6-44.6,8.26-32.61,5-64.35,13.58-96.17,21.9C600.1,331.62,584.38,335.3,568,339.34Z"/><path class="cls-1" d="M1719.57,173.92c-14.59,0-29.17,0-43.76,0a111.52,111.52,0,0,1-11.26-.66,2.88,2.88,0,0,1-1.9-2c-.08-.72.88-2.22,1.46-2.26,26.35-1.85,52.69-3.78,79.06-5.24,14.57-.81,29.14-1.31,43.64-3.17,6.37-.82,12.93-.46,19.38-.14a4,4,0,0,1,3.43,4.65,5.28,5.28,0,0,1-2.77,3.5,18.84,18.84,0,0,1-6.35.87C1773.51,170.09,1746.63,173.69,1719.57,173.92Z"/><path class="cls-1" d="M1665.05,194c43.24-5.65,86.42-9,129.77-9,5.13,0,12-3.62,15.21,4.19-3.7,6.75-10.51,4.35-15.84,4.63-13,.68-26-.05-39,.17-27.08.45-54.15,1.16-81.22,1.74C1670.94,195.78,1667.87,195.8,1665.05,194Z"/><path class="cls-1" d="M2994.68,174c8.49.79,17.15,1.18,25.67,2.45,39.74,5.88,77.89,18,116.12,29.81,1.9.58,3.43,2.44,5,3.8.25.21.23,1.07,0,1.44-.51.9-1.24,2.41-1.83,2.39a26.31,26.31,0,0,1-6.32-1.13c-13.47-4-27-7.74-40.37-12.12a507.8,507.8,0,0,0-94.63-21.26,14.51,14.51,0,0,1-4.34-1.79,2,2,0,0,1-.72-1.27C2993,174.94,2993.47,174.16,2994.68,174Z"/><path class="cls-1" d="M2102.51,174.23c-5,3.8-10.32,3.71-15.58,3.82-20,.42-40,.11-59.85,1.45-24.77,1.67-49.55,2.36-74.34,3.24-5.9.21-11.78,1.42-17.65,2.22-5,.7-10.08,1.42-18.26-.26,17.88-6.31,33.44-7.19,48.66-8.06,41.48-2.38,83-3.5,124.56-5C2094,171.54,2098.61,170.18,2102.51,174.23Z"/><path class="cls-1" d="M3597.57,402.19c-.94,1-1.67,2.27-2.24,2.2-3.51-.4-5.4-3.22-7.65-5.53-8.63-8.88-17.09-17.95-26-26.53a310.9,310.9,0,0,0-79.11-55.62,14.28,14.28,0,0,1-4-2.6c-.5-.5-.24-1.89-.06-2.83a1.53,1.53,0,0,1,1.31-.79,37.15,37.15,0,0,1,6.13,1.43c12.76,4.62,24.47,11.4,35.63,18.92,27.93,18.82,52,42,74,67.35C3596.59,399.32,3597,401,3597.57,402.19Z"/><path class="cls-1" d="M2994.68,196.05a319.34,319.34,0,0,1,58.57,9.54c20.79,5.57,41.46,11.58,62.16,17.43a76.63,76.63,0,0,1,7.66,2.59c4.94,2,8.54,5.88,7,7.45-2.57,2.68-5.94,1.73-9,1.48a23.85,23.85,0,0,1-6.12-1.77,797.31,797.31,0,0,0-102.07-30.24c-3.67-.83-7.53-.82-11.2-1.66C2999.24,200.32,2996.47,199.74,2994.68,196.05Z"/><path class="cls-1" d="M299.49,437.31c.42,2.52-1.12,4-3,5.08q-12.82,7-25.76,13.84c-24,12.64-47.66,25.76-68.88,42.84-1.63,1.31-3.18,3.1-5.7,2.29-.5-.16-1-.42-1.46-.62-1.15-.5-1.45-1.36-1.13-2.67.7-2.86,3-4.39,5-6.13a238.11,238.11,0,0,1,39.92-27.88c18-10,36.4-19.17,54.65-28.66a6.57,6.57,0,0,1,2.92-1A3.66,3.66,0,0,1,299.49,437.31Z"/><path class="cls-1" d="M1651.13,145.85c45.56-8.84,91.52-9,137.46-9.27,4.32,0,8.64.15,13,.37a3.43,3.43,0,0,1,3.43,2.73c.58,3-1.67,3.69-3.82,3.71-18.37.17-36.75.31-55.13.26-22.17-.05-44.33-.11-66.42,2.42A116.9,116.9,0,0,1,1651.13,145.85Z"/><path class="cls-1" d="M1937.5,95.05c-14,0-28.1-.27-42.13.08-12.39.32-24.75,1.33-37.13,2-1.52.09-2.16-.56-1.69-2,.31-.91.68-2.25,1.36-2.5a22.75,22.75,0,0,1,6.18-1.42c42.59-3,85.22-4.51,127.91-2.75a42.31,42.31,0,0,1,8,1.17,3.22,3.22,0,0,1,1.87,2.29,2.83,2.83,0,0,1-2.85,3.14c-10.25-.24-20.5-.89-30.75-1.09s-20.52,0-30.77,0Z"/><path class="cls-1" d="M1477,138.18c2.79-3.06,6.73-3.19,10.25-3.69,31.11-4.44,62.31-8,93.8-8,5.8,0,9.62,2,8.64,4.52-1.53,3.9-5.18,3.42-8.15,3.57-15.68.75-31.38,1-47,1.91s-31.31,2.58-47,3.68C1484,140.47,1479.93,142,1477,138.18Z"/><path class="cls-1" d="M3179.59,214.4c6.88,1.34,13.82,2.45,20.64,4.08q40.91,9.86,81.74,20c2.1.52,4.12,1.33,6.16,2,2.34.81,3.57,2.31,2.59,4.85s-3.33,2.77-5.35,2.35c-3.68-.77-7.21-2.18-10.85-3.17-34.35-9.3-68.45-19.55-103.24-27.24-.71-.16-1.39-1.4-1.68-2.27-.38-1.12.47-1.76,1.93-1.54,2.67.39,5.33.84,8,1.27Z"/><path class="cls-1" d="M2993.24,218.79c21.64,2.22,43.17,7.41,64.59,12.81,18.31,4.62,36.28,10.6,54.37,16.09a18.93,18.93,0,0,1,5.56,3.06c1.92,1.41.59,3-.67,3.73a9.62,9.62,0,0,1-9.29.79C3071.14,238.91,3031.9,230.75,2993.24,218.79Z"/><path class="cls-1" d="M2993.29,236.36c39.17,1.54,76.17,11.91,112.46,25.42,1.51.56,2.9,1.42,4.41,2,1.66.63,2.83,1.58,2.37,3.48-.65,2.71-2.9,3-5.06,2.6a79.55,79.55,0,0,1-9.32-2.61c-8.66-2.95-17.33-5.91-25.92-9.06a347.38,347.38,0,0,0-72.15-17.72C2997.41,240.1,2994.74,239.47,2993.29,236.36Z"/><path class="cls-1" d="M3517.65,420.1c5.71,4.83,11.35,9.74,17.18,14.42a3.37,3.37,0,0,0,4.33-.42,3.06,3.06,0,0,0,.27-4.33c-2.6-3.41-5.55-6.57-8.47-9.73-6.92-7.48-13.89-14.91-20.65-22.14,1.07-2.84,2.38-1.93,3.44-.92q21.66,20.65,43.25,41.37a7.35,7.35,0,0,1,1.71,2.7c.37,1,.79,2.3.41,3.09-.77,1.57-2.36,1.19-4,1.14-4-.13-5.1,1.2-3.46,3.63,1.5,2.2,3.33,4.19,4.72,6.45.36.58-.12,2.11-.71,2.73a3.4,3.4,0,0,1-2.78,1.1,10.9,10.9,0,0,1-4-2.56q-15.43-15.48-30.7-31.13c-1.06-1.09-1.57-2.7-2.34-4.07Z"/><path class="cls-1" d="M1549.77,182.82c-28.12-1.51-53.74,3.53-79.6,4.08-3.77.07-7.53.49-11.3.51a3.1,3.1,0,0,1-2.32-1.58c-1-2.42,1.22-2.66,2.63-2.79,14.48-1.33,29-2.54,43.47-3.79,18.26-1.58,36.51-2.95,54.88-2.1,7.47.35,15.06.65,22.43-1.78,1.86-.62,4.34-.23,5.1,2.56.67,2.42-1.25,4.34-5.1,4.53-5.38.26-10.78.29-16.17.35S1553,182.82,1549.77,182.82Z"/><path class="cls-1" d="M2850.12,160.79a23.59,23.59,0,0,1,10-1.19c8.63.38,17.3.52,25.87,1.49,24.69,2.77,49.33,5.9,74,8.89a23.44,23.44,0,0,1,4.79.67c2.58.9,5.21,2.18,5,5.5-.32,4.24-3.77,3.18-6.1,2.8-20.25-3.22-40.52-6.34-60.68-10C2885.44,165.67,2867.83,163.48,2850.12,160.79Z"/><path class="cls-1" d="M1935.41,163.89c1.42-4.36,5.19-3.45,8.17-3.57,15.67-.63,31.34-1,47-1.51s31.32-1.11,47-1.57a40.49,40.49,0,0,1,8,.63,3.08,3.08,0,0,1,1.78,2.27c.09.83-.6,2.37-1.24,2.54a26.38,26.38,0,0,1-6.39.87q-47.79.84-95.58,1.5C1941.27,165.08,1938.08,166,1935.41,163.89Z"/><path class="cls-1" d="M317.62,430.1c32.74-20.19,67.73-34.2,102.92-47.76,1.33-.51,3.07-.08,4.61.06.46,0,1.19.52,1.26.9.19,1,.48,2.33,0,3a10,10,0,0,1-3.61,3,93.42,93.42,0,0,1-10.57,4.09c-30.43,9.48-59.7,21.89-88.75,34.89A47.91,47.91,0,0,1,317.62,430.1Z"/><path class="cls-1" d="M2882.12,177.57c21.66-.62,42.9,2.7,64.11,6.28q11.91,2,23.75,4.46c1.23.26,3.23,1.35,1.72,3.36a3.51,3.51,0,0,1-2.62,1.36c-4.81-.52-9.62-1.12-14.38-2Q2918.4,184.38,2882.12,177.57Z"/><path class="cls-1" d="M3166.92,229.76c9.42-.4,17.95,3.18,26.76,5,13.68,2.82,27.25,6.11,40.83,9.37a31.9,31.9,0,0,1,7.31,3.11,3.22,3.22,0,0,1,1.24,2.59c-.15,1.68-1.07,3-3.15,2.46q-35.72-9.71-71.39-19.54C3167.84,232.55,3167.55,231,3166.92,229.76Z"/><path class="cls-1" d="M2913.68,199.88c14.82-2.88,29.23-1.78,43.52.76,6.84,1.21,14.13.73,20.44,4.4.89.51,2.3,1.87,2.16,2.11-.75,1.34-1.66,3-3,3.57-3.05,1.37-6.38.92-9.51,0C2949.72,205.32,2931.47,203.48,2913.68,199.88Z"/><path class="cls-1" d="M1498.52,171.69c2.71-2.12,5.87-.9,9-.6,1.51.15,3.89.71,4.43,0,5.14-6.79,12.58-4,19.07-4.88s12.76-1.95,19.18-2.38c12.34-.85,24.7-1.32,37-1.91,1.47-.07,3.47-.57,3.91,1.4.77,3.54-2.54,2.94-4.12,3q-27.37,1.49-54.76,2.59C1521.13,169.38,1509.87,168.61,1498.52,171.69Z"/><path class="cls-1" d="M356.38,392.68c-12.89,10.59-28.49,13.51-42.23,20.06C301,419,287.29,424.16,274.24,430.65a495.33,495.33,0,0,1,77.84-39.1C352.84,391.25,354,392,356.38,392.68Z"/><path class="cls-1" d="M3508.37,353.73c16,6.85,29.78,16.82,42.13,28.67,9.71,9.31,18.77,19.3,28,29.13,1.59,1.7,5.36,3.89,2.24,6.34-2,1.54-4.88-1.36-6.52-3.28-4.86-5.67-9.16-11.83-14.15-17.36C3544.82,380.35,3527.16,366.34,3508.37,353.73Z"/><path class="cls-1" d="M1591.81,146.74c-2.37,3.15-2.84,4.5-3.61,4.71-7.24,2-77,2.33-94.11.57,4.89-2.63,9.57-1.75,14-2q32.22-1.75,64.46-3.25C1578.42,146.51,1584.32,146.74,1591.81,146.74Z"/><path class="cls-1" d="M1852.12,110.73c26.61-5.44,52.83-6.69,79.12-6.08a8.86,8.86,0,0,1,4.38,1.69c.66.45.76,1.83.93,2.82,0,.28-.47.83-.84,1a8.17,8.17,0,0,1-3,.95Q1892.4,111,1852.12,110.73Z"/><path class="cls-1" d="M253.79,431.28c-1,1.28-1.67,3.06-2.95,3.73C229.27,446.26,207.6,457.34,188,472c-.58.44-2-.27-3-.45.17-.91,0-2.17.58-2.68a82,82,0,0,1,8.56-7.37c15.95-11.26,33-20.67,50.43-29.39C247.5,430.59,250.36,429.05,253.79,431.28Z"/><path class="cls-1" d="M3173.76,245.07c11.44,2.7,23.43,3.26,34.32,8.1,1.44.64,4.75.87,2.93,4.07A3.53,3.53,0,0,1,3207,259q-25.59-6.58-51.15-13.35c-.68-.18-1.27-1.71-1.36-2.67,0-.4,1.41-1.45,2-1.34C3162.26,242.68,3168,243.9,3173.76,245.07Z"/><path class="cls-1" d="M1844.05,123c13.9-.79,27.79-1.66,41.7-2.34q12.11-.59,24.25-.61c2.06,0,4.14.86,6.19,1.43a1.33,1.33,0,0,1,.57,1.16,5.29,5.29,0,0,1-1.12,2.63,4.9,4.9,0,0,1-2.91,1.1c-23,.76-46,1.33-68.93,0C1843.88,125.26,1844,124.14,1844.05,123Z"/><path class="cls-1" d="M3513.07,377.12c21.37,14.11,39.52,29.77,54.23,49.24a6.49,6.49,0,0,1,1.43,2.84,4.94,4.94,0,0,1-.86,2.7c-.13.23-1.08.25-1.51,0a6.63,6.63,0,0,1-2.6-1.69c-13.7-18.94-31.32-34.07-48.26-49.87A33.47,33.47,0,0,1,3513.07,377.12Z"/><path class="cls-1" d="M1954.42,149.19c22.24-5.6,44.31-5.92,66.37-6.31,1.52,0,3.06.77,4.55,1.32.23.08.29.86.29,1.32s0,1.44-.27,1.51c-2,.63-4,1.52-6.09,1.57q-30.86.78-61.72,1.29A13.06,13.06,0,0,1,1954.42,149.19Z"/><path class="cls-1" d="M1873.67,156.89q-15.26.95-30.5,1.87c-1.43.09-2.23-.72-1.77-1.85.34-.86,1.17-2,1.92-2.14,14.83-2.24,29.65-4.9,44.76-3.34a2.71,2.71,0,0,1,2.42,3.29c-.1.72-1.51,1.71-2.39,1.78-4.8.38-9.62.52-14.43.74Z"/><path class="cls-1" d="M1955.52,133.69c6.54-4.09,11.27-5.25,15.8-5.5,16.11-.91,32.25-1.28,48.39-1.71a2.57,2.57,0,0,1,2.69,3.09c-.17.92-.92,2.27-1.66,2.46a32.43,32.43,0,0,1-7.87,1.23C1994.67,133.31,1976.48,131.91,1955.52,133.69Z"/><path class="cls-1" d="M1875.53,137.05c9.08,0,18.17,0,27.25,0,1.47,0,1.69.79,1.64,2.05s-.33,2.12-1.72,2.27c-3.17.35-6.34,1-9.51,1q-20.91.39-41.81.47a29.33,29.33,0,0,1-6.23-1.11,1.38,1.38,0,0,1-.83-1.05c.09-.83.4-2.31.71-2.33,10.15-.72,20.32-1.3,30.48-1.9C1875.51,136.68,1875.52,136.86,1875.53,137.05Z"/><path class="cls-1" d="M1854.51,173.49c-4.24-.26-8.49-.42-12.71-.84-1.32-.13-3.17,0-3.4-2.13-.26-2.38,1.73-2.57,3.09-2.61,6.9-.22,13.81-.28,20.71-.24,2.52,0,5.24-.49,7.23,2,1.52,1.87-1.16,3.22-6.94,3.47-2.65.11-5.31,0-8,0C1854.52,173.25,1854.52,173.37,1854.51,173.49Z"/><path class="cls-1" d="M254,443.69a158.6,158.6,0,0,1-32.73,17.23C231.63,454.17,241.25,446,254,443.69Z"/></g></g></g></svg>